<?xml version="1.0" standalone="no"?>
<!DOCTYPE svg PUBLIC "-//W3C//DTD SVG 20010904//EN"
 "http://www.w3.org/TR/2001/REC-SVG-20010904/DTD/svg10.dtd">
<svg version="1.0" xmlns="http://www.w3.org/2000/svg"
 width="450.000000pt" height="450.000000pt" viewBox="0 0 450.000000 450.000000"
 preserveAspectRatio="xMidYMid meet">

<g transform="translate(0.000000,450.000000) scale(0.100000,-0.100000)"
fill="#000000" stroke="none">
<path d="M758 4351 c-111 -71 -282 -368 -339 -589 -34 -135 -22 -209 46 -278
58 -57 127 -78 239 -72 108 7 181 36 252 100 75 69 64 74 -123 58 -143 -13
-216 -10 -253 10 -16 9 -20 21 -20 63 0 123 64 275 197 464 70 99 91 123 111
123 29 0 82 51 82 80 0 11 -11 32 -25 45 -36 37 -106 35 -167 -4z"/>
<path d="M1326 4337 c-14 -10 -18 -32 -21 -117 -1 -58 -13 -179 -26 -270 -15
-111 -23 -218 -23 -325 -1 -149 1 -163 23 -208 38 -79 105 -98 222 -62 30 9
104 22 165 30 126 16 157 27 173 61 15 34 5 50 -47 76 -58 27 -180 29 -285 4
-38 -9 -72 -16 -78 -16 -14 0 -11 187 6 340 16 151 19 385 5 444 -4 21 -15 43
-22 47 -20 13 -72 11 -92 -4z"/>
<path d="M2139 4308 c-14 -53 -14 -215 -1 -543 14 -329 33 -391 114 -383 26 2
36 10 50 38 16 33 17 61 8 350 -14 461 -41 580 -130 580 -26 0 -31 -5 -41 -42z"/>
<path d="M2874 4306 c-46 -20 -89 -79 -149 -201 -66 -134 -104 -268 -112 -395
-9 -147 22 -224 107 -268 41 -22 54 -23 145 -18 91 5 315 52 333 71 12 11 -23
59 -58 79 -31 19 -52 21 -195 21 l-160 0 1 90 c1 50 9 121 18 159 21 87 83
220 125 269 l33 37 26 -25 c31 -31 62 -32 91 -1 34 36 37 84 9 125 -44 65
-138 90 -214 57z"/>
<path d="M3322 4275 l-29 -24 13 -53 c9 -33 14 -109 14 -208 0 -187 16 -472
31 -555 21 -123 72 -182 132 -154 38 17 46 53 40 186 -4 82 -2 122 5 127 29
18 167 -75 321 -216 82 -74 140 -108 189 -108 58 0 80 66 42 127 -50 82 -267
250 -422 326 -59 28 -108 56 -108 61 0 6 39 46 87 90 159 148 199 191 223 240
25 52 40 156 23 156 -24 0 -137 -85 -229 -172 -56 -53 -115 -103 -131 -112
l-30 -15 -7 83 c-7 103 -31 178 -67 217 -33 35 -58 37 -97 4z"/>
<path d="M863 2843 c-46 -9 -74 -177 -98 -575 -13 -213 -14 -279 -5 -324 13
-62 42 -99 84 -110 62 -15 76 16 76 175 l0 117 68 21 c92 29 129 36 136 25 3
-6 11 -57 16 -114 14 -131 25 -174 55 -204 30 -30 75 -31 101 -3 29 33 25 207
-8 364 -15 66 -36 181 -47 255 -32 213 -63 295 -121 325 -48 25 -67 19 -81
-22 -15 -46 -7 -128 25 -261 14 -56 28 -121 31 -145 l6 -42 -76 -17 c-43 -10
-82 -15 -88 -11 -6 4 -7 53 -1 147 14 216 11 335 -10 374 -16 32 -20 33 -63
25z"/>
<path d="M2494 2827 c-68 -18 -114 -46 -141 -87 -27 -39 -29 -81 -7 -165 10
-38 18 -141 24 -285 9 -259 20 -310 75 -359 40 -34 66 -39 89 -15 26 25 30 63
18 164 -15 115 -15 140 -2 140 22 0 206 -118 258 -165 31 -27 75 -80 99 -117
37 -59 47 -68 72 -68 42 0 61 24 61 74 0 128 -58 203 -254 326 -66 41 -121 80
-123 87 -2 6 17 25 42 43 67 46 123 108 141 157 24 61 14 143 -22 190 -56 73
-210 110 -330 80z m161 -161 c39 -17 44 -39 20 -86 -15 -29 -132 -126 -141
-117 -3 3 -13 50 -23 105 l-17 101 30 4 c66 8 98 6 131 -7z"/>
<path d="M3257 2830 c-53 -14 -108 -44 -139 -77 -63 -66 -58 -212 17 -549 25
-109 45 -199 45 -201 0 -1 17 -7 38 -13 95 -27 310 -22 461 11 55 12 61 21 36
68 -30 60 -122 76 -321 58 l-91 -9 -6 74 c-4 40 -10 90 -13 110 l-6 36 46 7
c25 4 95 6 156 3 120 -4 120 -4 120 56 0 40 -39 79 -96 96 -42 12 -195 10
-225 -4 -13 -6 -18 4 -28 50 -6 32 -11 72 -11 90 0 30 4 34 33 39 19 4 60 2
92 -4 32 -6 72 -11 88 -11 29 0 30 1 24 46 -5 52 -31 93 -69 112 -36 17 -106
23 -151 12z"/>
<path d="M1772 2769 c-30 -5 -97 -24 -150 -42 l-97 -32 -3 -245 c-4 -341 17
-468 84 -499 23 -10 32 -8 72 15 45 27 46 27 161 18 162 -12 280 -10 319 7
l33 14 -23 34 c-32 48 -71 68 -156 81 -54 9 -100 9 -185 0 -61 -7 -115 -14
-118 -16 -8 -4 -19 85 -19 154 0 28 3 52 8 52 35 1 194 31 211 39 47 26 30
103 -25 117 -25 6 -116 0 -181 -12 l-33 -6 0 66 c0 78 -1 77 123 102 100 19
151 47 155 85 7 61 -63 88 -176 68z"/>
<path d="M1952 1508 c-23 -31 -42 -80 -56 -154 -24 -123 -56 -447 -67 -689 -5
-121 -11 -227 -12 -235 -4 -25 -97 110 -170 247 -72 135 -144 244 -164 251 -7
2 -26 -10 -43 -26 -54 -54 -42 -98 92 -340 115 -209 151 -263 225 -333 113
-108 144 -120 189 -72 13 14 61 99 106 187 44 89 110 204 144 257 65 98 94
162 94 206 0 32 -27 83 -44 83 -37 0 -101 -69 -171 -185 -40 -65 -78 -121 -84
-123 -15 -5 -9 70 25 358 28 232 42 428 36 511 -4 54 -5 57 -34 63 -44 9 -54
8 -66 -6z"/>
</g>
</svg>
