<?xml version="1.0" encoding="utf-8"?>
<!-- Generator: Adobe Illustrator 21.0.0, SVG Export Plug-In . SVG Version: 6.00 Build 0)  -->
<svg version="1.1" id="Layer_1" xmlns="http://www.w3.org/2000/svg" xmlns:xlink="http://www.w3.org/1999/xlink" x="0px" y="0px"
	 viewBox="0 0 1960 1074" style="enable-background:new 0 0 1960 1074;" xml:space="preserve">
<style type="text/css">
	.st0{fill:#BC9F80;}
</style>
<polygon class="st0" points="0,743 826,678 1168,723 1576,613 1960,723 1960,1074 23,1074 "/>
<path class="st0" d="M715,714c0,0-69-254-101-268S490,322,498,292S388,0,352,0H23v801h640L715,714z"/>
<path class="st0" d="M762.9,719.3c-8.2-1.1-16.4-1.5-24.1-6.9c-0.1,3.2,2,3.9,2.2,6.2c-8.5-1.8-15.2-8.2-21.5-15.3
	c-1.8-2-2.8-2.2-4.6,0.2c-4.5,6-9.3,11.8-14,17.5c-1,1.2-2,3-4.1,2.2l2.8-6.7c-6.2,4.9-11.3,11.8-18.9,14c1.6-6.7,5-12.2,5.8-19.6
	l-13.4,4.9l-0.7-1.2c5.2-4.1,10.2-8.5,13.9-17.2c-18.6,10.5-35.5,6.5-52.2-5.5c5-1.6,9.8-1,14.5-1.8c4.8-0.9,9.7-1.2,14.3-3.7
	c4.7-2.5,9-5.5,13-9c0.3-2.7-1-1.3-1.8-1.2c-11.8,4.3-23,1.4-34.7-5.4c8.7-3,17.5-1.1,24.9-8c7.1-6.6,12.8-14.9,18.7-24
	c-10.7,5.6-21.5,7.5-33,3.3c13.5-3.9,25.2-11.9,34-27.2c-5.2,0.5-9.9,2.4-14.7,3.9c-5.6,1.8-11.2,4.2-17,4.5l0.1-0.6
	c5.1-4.1,10.9-6.3,16.5-8.8c8.2-3.7,15-10.2,21-18.7c-6,1.9-11.6,5.7-17.8,6.8c-0.7,0.1-1.7,1-1.7-1c4.8-3.1,9.2-6.8,12.9-11.2
	c-5,1-9.9,3.8-15.1,2.9c-5.8-0.9-11.3-3.1-16-6.5c14-4.5,27-9.5,38.2-20.2c-5.8,1.1-11.4,3.4-17.6,3.8c2-2.8,4.7-2.7,7.2-5.1h-16
	c9.1-6.6,18.8-6.9,27.2-14.5c-4-1.2-7.3,1-10.5-0.2c-0.2-1.8,1.8-1.4,1.7-3.7c-2.9,0-5.9,1.3-9.5,0.2c11.4-6.8,22.5-13,30.3-27.1
	c-2.9,0.8-4.4,3.5-6.5,4.6c-0.7,0.4-2,2.6-1.7-1.1c0.2-2.2-1.3-0.2-1.9,0c-5,1.8-10,4-16.4,2.5l6.2-3.9c-3.2-0.5-5.5-0.8-7.8-1.3
	c-1.8-0.3-3.3-1.5-4.2-3.1c-1.4-2.6-1.2-4.2,1.5-4.5c5-0.5,10-1.1,15-1.8c7.5-1.2,13.5-6.7,17.1-15.9c-3.7,2.4-6.9,5.1-10.8,3.9
	c0.4-2.4,3-1.2,3.3-3.5c-2.3-0.3-4.7-0.2-6.9-1.1c-2.4-0.9-4.2-3.2-5.1-6.8c10.1-3.2,21.2-3.9,27.8-18.3c-4.9,1.4-10,2.4-15.2,2.8
	c1.7-3.3,4.3-3.7,6.5-4.7c2.6-1,4.9-2.7,6.7-4.9c0.5-0.6,1.1-1.3,0.8-2.3c-0.5-1.4-1.4-0.7-2.1-0.4c-3,1.1-5.9,2.4-9,3.6
	c-0.1-3.1,2.3-2.6,2.7-4.9c-4.5,0.5-8.7,2.8-13.5,2c1.3-2.5,3.5-2.4,5.1-3.8c-2-2-4.7-2-6.7-4.5c8.5-3.7,16.5-8.2,22.8-17.2
	c-2.1-1.6-3.7,1.7-5.6,0.1c1.1-1.7,2.9-2.4,3.9-5.1c-3.8,1.6-7.3,3.6-11.7,4.2c1.5-3,3.7-5.6,6.3-7.5c4.9-3.8,9.2-8.4,12.7-13.5
	c3.7-5.6,4-8.5,1.5-15.3c-3.3-9.1-3.3-10.5,0.1-20.8c0.2,0.1,0.5,0.3,0.5,0.5c-0.5,8.4,0.5,16.1,4.7,23c1.8,2.9,2.3,7.3,3,11.2
	c1.1,6.7,4,10.9,8.8,13.1c3,1.4,6,3,9.8,5c-5.1,1.4-9.4,0-14.7-0.6l9.8,9.3c-2.3,0.5-4.2-2.1-6.2-0.5c8.4,7.9,16.6,16.3,28.2,13.3
	c-3.7,10.7-10.6,9.1-17.6,9.3l5.8,5c-7,1.1-11.8-3.7-17.7-6.3c1.8,6.7,5.6,10.3,8.3,15.2c-2.3,1.1-3.6-2.4-5.8-1.3
	c7.2,14.4,18.2,15.6,30,15.6c-4.8,7-10.5,3.9-15.5,5c0.2,2.6,2.7,3.1,2.8,5.9c-2.6-0.5-5.1-2.1-8.3-1.5
	c9.7,13.3,22.5,16.3,34.9,22.6c-3.8,4-7.8,5.8-12.4,5.4c-3.1-0.3-6.2-0.7-9.3-1c-0.6,0-1.8-1.4-1.5,1l5.5,2.7
	c0.1,0.9-0.1,1.5-0.9,0.9c-4.6,0-9.1-1.3-14-3.8c6.2,10.6,12.1,20,20.7,25.6c-0.8,1.7-1.7,0.8-2.4,1c-0.8-0.1-2.2-1.9-1.7,1.2
	c5.1,7.1,11,11.9,19.4,12c-3,2.7-5.5,1.9-7.9,2.4c-0.8,0.6-0.8,1.2,0,1.8l4.7,1.5c0.4,2.1-1.2,1-1.6,1.8c-5.4,1.2-10.2-2.3-15.2-4.1
	c10,14.3,22,20,37.2,13.9c-10.5,17.2-22.7,12.3-35,9.3c4.4,6.6,10.4,8.9,16.2,12c-0.6,2.8-2.1,1.2-3.2,1.1c-3.5,0.1-6.8-1.5-10.1-3
	c-1.3-0.6-2.6-1-1.3,1.8c0.2,0.5,0.2,1.2-0.2,1.6c-0.3,1-0.2,2,0.2,2.9c6.1,10.1,14.8,11.8,23.7,13.5c-5.3,2.8-10.7,2-16.4,1.7
	c1.2,2.8,3.9,2,5.2,4.8c-5.4,1-10-2.1-15.1-2.9c4.7,5,9.4,9.9,15.2,12.3c6,2.5,12.1,0.1,18.9-0.3c-5.3,10.6-12.4,13.6-21,13.3
	l11.2,5.2c-4.4,0.6-8.9,0.4-13.2-0.7c0.1,2.2,1.3,2.5,2.2,3.2c5.9,4.8,11.9,9.5,17.8,14.4c6.5,5.5,13.5,6,20.8,3.8l4.8-1.5
	c-6.2,10.4-13.8,15.6-22.8,18c-9.3,2.4-16.7-4.1-24.6-11c1.5,3.8,3.8,7.3,6.7,10.3c2.4,2.6,4.8,5.2,8.1,8.7c-8-1.1-14.1-5-20.2-9.4
	c6.6,9.2,11.6,20.8,22.1,25.6c-9.7,2.9-18.1,1-26.3-2.9c-0.6-0.3-1.1-0.6-1.7,0c0.4,0.3,0.6,0.7,0.8,1.2l2.4,2.3
	C764.7,720.2,763.7,719.5,762.9,719.3z"/>
<path class="st0" d="M676.3,675.8c-10.8-1.5-21.7-2-31.8-9.1c-0.2,4.2,2.7,5.2,2.9,8.2c-11.2-2.4-20-10.8-28.4-20.2
	c-2.4-2.7-3.7-2.9-6.1,0.2c-6,8-12.2,15.5-18.5,23.1c-1.3,1.6-2.7,4-5.4,3l3.6-8.8c-8.1,6.5-14.9,15.6-24.9,18.4
	c2.1-8.8,6.5-16.1,7.7-25.9l-17.7,6.5l-0.9-1.6c6.8-5.5,13.4-11.2,18.3-22.6c-24.5,13.8-46.8,8.5-68.9-7.3c6.6-2.1,13-1.3,19.1-2.5
	c6.4-1.2,12.8-1.6,18.9-4.9c6.1-3.3,11.9-7.3,17.1-11.9c0.4-3.6-1.3-1.7-2.4-1.6c-15.6,5.7-30.4,1.9-45.8-7.1
	c11.5-4,23.1-1.4,32.8-10.5c9.3-8.7,17-19.7,24.7-31.6c-14.1,7.4-28.4,9.9-43.5,4.4c17.9-5.1,33.3-15.7,44.9-35.9
	c-6.9,0.7-13.1,3.2-19.4,5.2c-7.4,2.4-14.8,5.5-22.5,5.9l0.1-0.8c6.8-5.4,14.3-8.3,21.7-11.7c10.8-4.9,19.8-13.5,27.7-24.6
	c-8,2.5-15.4,7.5-23.5,8.9c-1,0.2-2.2,1.3-2.2-1.4c6.4-4.1,12.1-9,17.1-14.8c-6.7,1.3-13,5-19.9,3.8c-7.6-1.1-14.9-4.1-21.1-8.6
	c18.5-5.9,35.6-12.5,50.4-26.7c-7.7,1.4-15.1,4.5-23.3,5.1c2.6-3.7,6.1-3.6,9.5-6.7h-21.2c12-8.7,24.8-9.1,35.9-19.1
	c-5.2-1.6-9.6,1.4-13.8-0.2c-0.3-2.4,2.4-1.9,2.2-4.8c-3.8,0-7.8,1.7-12.5,0.2c15-8.9,29.6-17.2,40-35.8c-3.8,1.1-5.8,4.5-8.5,6
	c-0.9,0.5-2.6,3.5-2.2-1.5c0.2-2.9-1.7-0.3-2.5,0c-6.6,2.4-13.2,5.2-21.7,3.4l8.1-5.2c-4.2-0.7-7.2-1-10.2-1.7
	c-2.4-0.4-4.4-1.9-5.5-4.1c-1.8-3.4-1.7-5.6,2-6c6.6-0.7,13.2-1.4,19.8-2.4c9.9-1.5,17.9-8.8,22.6-21c-4.9,3.2-9.1,6.8-14.2,5.1
	c0.5-3.2,3.9-1.6,4.3-4.6c-3-0.4-6.2-0.3-9.1-1.4c-3.1-1.2-5.5-4.2-6.8-9c13.4-4.3,27.9-5.1,36.7-24.1c-6.5,1.9-13.2,3.2-20,3.7
	c2.3-4.3,5.7-4.9,8.6-6.1c3.3-1.5,6.3-3.2,8.8-6.5c0.6-0.9,1.5-1.8,1-3c-0.6-1.8-1.9-0.9-2.8-0.6c-3.9,1.5-7.8,3.1-11.9,4.8
	c-0.1-4.1,3.1-3.4,3.6-6.4c-5.9,0.7-11.5,3.7-17.8,2.6c1.7-3.3,4.6-3.1,6.7-5c-2.6-2.7-6.2-2.6-8.8-6c11.2-4.8,21.7-10.9,30-22.8
	c-2.7-2.1-4.9,2.3-7.3,0.1c1.5-2.3,3.9-3.2,5.1-6.8c-5.1,2.1-9.7,4.7-15.4,5.5c2.3-4.9,5.3-7.4,8.4-9.9c6.1-5.1,12-10.5,16.8-17.8
	s5.3-11.2,2-20.2c-4.4-12-4.4-13.8,0.2-27.4c0.2,0.2,0.7,0.4,0.7,0.6c-0.7,11.1,0.7,21.2,6.2,30.3c2.3,3.8,3.1,9.7,4,14.8
	c1.5,8.8,5.3,14.4,11.6,17.3c4,1.9,7.9,4,12.9,6.6c-6.8,1.9-12.4,0-19.4-0.7l12.9,12.2c-3.1,0.7-5.5-2.8-8.1-0.7
	c11,10.5,22,21.5,37.3,17.6c-4.8,14.1-14,12-23.2,12.3l7.6,6.6c-9.2,1.5-15.6-4.9-23.3-8.4c2.3,8.8,7.4,13.6,11,20
	c-3,1.4-4.7-3.1-7.6-1.7c9.5,19,24,20.6,39.6,20.6c-6.3,9.3-13.8,5.2-20.5,6.6c0.2,3.4,3.5,4,3.6,7.7c-3.5-0.6-6.7-2.8-10.9-2
	c12.7,17.5,29.8,21.5,46,29.8c-5,5.2-10.3,7.6-16.3,7.1c-4.1-0.3-8.2-0.9-12.3-1.4c-0.8,0-2.4-1.9-2,1.4l7.2,3.6
	c0.1,1.2-0.1,2-1.2,1.2c-6.1,0-12-1.8-18.5-5c8.1,14,16,26.5,27.4,33.8c-1,2.2-2.2,1-3.1,1.4c-1-0.1-2.8-2.5-2.3,1.5
	c6.7,9.3,14.5,15.7,25.6,15.9c-3.9,3.6-7.3,2.5-10.4,3.2c-1,0.8-1,1.5,0,2.3l6.2,2c0.5,2.7-1.5,1.3-2.1,2.3c-7.2,1.6-13.5-3-20-5.5
	c13.2,18.9,29,26.3,49.1,18.3c-13.8,22.7-30,16.2-46.1,12.2c5.8,8.7,13.7,11.8,21.3,15.8c-0.8,3.7-2.7,1.6-4.3,1.5
	c-4.7,0.1-9-2-13.3-3.9c-1.8-0.8-3.4-1.3-1.7,2.4c0.3,0.7,0.2,1.5-0.3,2.2c-0.3,1.3-0.3,2.6,0.2,3.8c8,13.3,19.6,15.6,31.2,17.9
	c-7,3.7-14.1,2.6-21.7,2.3c1.6,3.7,5.1,2.6,6.8,6.3c-7.1,1.3-13.2-2.7-19.9-3.9c6.2,6.7,12.4,13,20,16.2c8,3.3,16,0.2,25-0.4
	c-7,14-16.3,17.9-27.7,17.5l14.8,6.8c-6.6,1.1-12,0.2-17.4-0.8c0.1,2.8,1.8,3.3,2.9,4.2c7.8,6.4,15.7,12.5,23.4,19
	c8.6,7.2,17.8,7.9,27.4,5l6.4-2c-8.2,13.7-18.3,20.6-30,23.7c-12.3,3.2-22-5.5-32.5-14.5c2.5,6.5,5.6,10,8.8,13.6s6.3,6.8,10.7,11.5
	c-10.6-1.5-18.6-6.6-26.6-12.4c8.8,12.2,15.3,27.4,29.1,33.7c-12.8,3.8-23.8,1.3-34.8-3.8c-0.7-0.3-1.5-0.8-2.2,0
	c0.5,0.4,0.8,0.9,1,1.5l3.2,3C678.8,677,677.4,676.1,676.3,675.8z"/>
<path class="st0" d="M835.2,690.1c-5.7-0.8-11.5-1.1-16.9-4.8c-0.1,2.2,1.4,2.8,1.5,4.4c-6-1.3-10.6-5.7-15.1-10.7
	c-1.3-1.4-2-1.5-3.2,0.1c-3.2,4.2-6.5,8.2-9.8,12.3c-0.7,0.9-1.4,2.1-2.9,1.6l1.9-4.7c-4.3,3.4-7.9,8.3-13.2,9.8
	c1.1-4.7,3.5-8.5,4.1-13.7l-9.4,3.5l-0.5-0.8c3.6-2.9,7.1-6,9.7-12c-13,7.3-24.8,4.5-36.6-3.9c3.5-1.1,6.9-0.7,10.1-1.3
	s6.8-0.9,10-2.6c3.2-1.8,6.3-3.9,9.1-6.3c0.2-1.9-0.7-0.9-1.3-0.8c-8.3,3-16.1,1-24.3-3.8c6.1-2.1,12.2-0.8,17.4-5.6
	c5-4.6,9-10.4,13.1-16.8c-7.5,3.9-15.1,5.3-23.1,2.3c9.5-2.7,17.7-8.3,23.8-19c-3.6,0.4-6.9,1.7-10.3,2.8c-4,1.3-7.8,2.9-11.9,3.2
	v-0.5c3.6-2.9,7.6-4.4,11.5-6.2c5.7-2.6,10.5-7.1,14.7-13.1c-4.2,1.3-8.2,4-12.5,4.8c-0.5,0.1-1.2,0.7-1.2-0.7
	c3.4-2.1,6.4-4.8,9.1-7.8c-3.5,0.7-6.9,2.6-10.6,2c-4-0.6-7.9-2.2-11.2-4.5c9.8-3.1,18.9-6.6,26.7-14.2c-4.1,0.8-8,2.4-12.3,2.7
	c1.4-2,3.3-1.9,5.1-3.5h-11.1c6.4-4.6,13.1-4.9,19.1-10.2c-2.8-0.8-5.1,0.7-7.3-0.1c-0.2-1.3,1.3-1,1.2-2.6c-2,0-4.1,0.9-6.7,0.1
	c8-4.7,15.7-9.1,21.2-19c-2,0.6-3.1,2.4-4.5,3.2c-0.5,0.3-1.4,1.8-1.2-0.8c0.1-1.5-0.9-0.2-1.3,0c-3.5,1.3-7,2.8-11.5,1.8l4.3-2.8
	c-2.2-0.4-3.8-0.5-5.4-0.9c-1.3-0.2-2.3-1-2.9-2.2c-1-1.8-0.9-3,1-3.2c3.5-0.4,7-0.7,10.5-1.3c5.3-0.8,9.5-4.7,12-11.1
	c-2.6,1.7-4.8,3.6-7.5,2.7c0.3-1.7,2.1-0.9,2.3-2.5c-1.6-0.1-3.2-0.3-4.8-0.7c-1.7-0.6-3-2.2-3.6-4.8c7.1-2.3,14.8-2.7,19.5-12.8
	c-3.5,1-7,1.7-10.6,2c1.2-2.3,3-2.6,4.6-3.3c1.8-0.7,3.5-1.9,4.7-3.4c0.3-0.5,0.8-0.9,0.5-1.6c-0.3-1-1-0.5-1.5-0.3
	c-2.1,0.8-4.1,1.6-6.3,2.5c0-2.2,1.6-1.8,1.9-3.4c-3.1,0.4-6.1,2-9.4,1.4c0.9-1.8,2.4-1.6,3.5-2.6c-1.4-1.4-3.3-1.4-4.7-3.2
	c5.9-2.6,11.5-5.8,16-12.1c-1.4-1.1-2.6,1.2-3.9,0c0.8-1.2,2.1-1.7,2.7-3.6c-2.7,1.1-5.1,2.5-8.2,2.9c1-2.1,2.6-3.9,4.4-5.3
	c3.4-2.7,6.4-5.9,8.9-9.4c2.6-3.9,2.8-5.9,1.1-10.7c-2.3-6.4-2.3-7.3,0.1-14.5c0.1,0.1,0.4,0.2,0.4,0.3c-0.3,5.9,0.3,11.2,3.3,16.1
	c1.2,2,1.6,5.1,2.1,7.8c0.8,4.7,2.8,7.6,6.2,9.2c2.1,1,4.2,2.1,6.9,3.5c-3.6,1-6.6,0-10.3-0.4l6.8,6.5c-1.6,0.4-2.9-1.5-4.3-0.4
	c5.9,5.5,11.7,11.4,19.8,9.3c-2.5,7.5-7.4,6.4-12.3,6.5l4,3.5c-4.9,0.8-8.3-2.6-12.4-4.4c1.2,4.7,3.9,7.2,5.8,10.6
	c-1.6,0.8-2.5-1.7-4-0.9c5,10.1,12.7,11,21,10.9c-3.3,4.9-7.3,2.7-10.9,3.5c0.1,1.8,1.9,2.1,1.9,4.1c-1.8-0.3-3.6-1.5-5.8-1
	c6.8,9.3,15.8,11.4,24.4,15.8c-2.7,2.8-5.5,4.1-8.7,3.8c-2.2-0.2-4.3-0.5-6.5-0.7c-0.5,0-1.2-1-1,0.7l3.8,1.9c0,0.7-0.1,1-0.6,0.6
	c-3.4-0.1-6.8-1-9.8-2.7c4.3,7.4,8.5,14,14.5,17.9c-0.6,1.2-1.2,0.5-1.7,0.7c-0.5-0.1-1.5-1.3-1.2,0.8c3.6,5,7.7,8.3,13.6,8.4
	c-2.1,1.9-3.9,1.3-5.5,1.7c-0.5,0.4-0.5,0.8,0,1.2l3.3,1.1c0.3,1.4-0.8,0.7-1.1,1.2c-3.8,0.8-7.1-1.6-10.6-2.9c7,10,15.4,14,26,9.7
	c-7.3,12.1-15.9,8.6-24.5,6.5c3,4.6,7.3,6.2,11.3,8.4c-0.4,2-1.4,0.9-2.3,0.8c-2.5,0.1-4.8-1.1-7.1-2.1c-0.9-0.4-1.8-0.7-0.9,1.3
	c0.2,0.4,0.1,0.8-0.2,1.2c-0.2,0.7-0.1,1.4,0.1,2c4.3,7.1,10.4,8.3,16.6,9.5c-3.7,2-7.5,1.4-11.5,1.2c0.8,2,2.7,1.4,3.6,3.4
	c-3.8,0.7-7-1.5-10.5-2c3.3,3.5,6.6,6.9,10.6,8.6c4.2,1.8,8.5,0.1,13.2-0.2c-3.7,7.4-8.7,9.5-14.7,9.3l7.8,3.6
	c-3.1,0.4-6.2,0.3-9.2-0.5c0,1.5,0.9,1.7,1.5,2.2c4.1,3.4,8.3,6.6,12.4,10.1c4.6,3.8,9.4,4.2,14.5,2.6l3.4-1.1
	c-4.3,7.3-9.7,11-15.9,12.6c-6.5,1.7-11.7-2.9-17.2-7.7c1,2.7,2.6,5.1,4.7,7.2c1.7,1.8,3.4,3.6,5.7,6.1c-5.6-0.8-9.9-3.5-14.1-6.6
	c4.7,6.5,8.1,14.6,15.4,17.9c-6.8,2-12.7,0.7-18.4-2c-0.4-0.2-0.8-0.5-1.2,0c0.3,0.2,0.4,0.5,0.5,0.8l1.7,1.6
	C836.5,690.8,835.8,690.3,835.2,690.1z"/>
<path class="st0" d="M921.5,721.2c-7.2-1-14.6-1.3-21.4-6.1c-0.1,2.8,1.8,3.5,1.9,5.5c-7.5-1.6-13.5-7.3-19.1-13.6
	c-1.6-1.8-2.5-1.9-4.1,0.2c-4,5.4-8.2,10.5-12.4,15.5c-0.9,1.1-1.8,2.7-3.6,2l2.4-5.9c-5.5,4.3-10,10.5-16.8,12.4
	c1.4-6,4.4-10.8,5.2-17.4l-11.9,4.4l-0.6-1.1c4.6-3.7,9-7.6,12.3-15.2c-16.5,9.3-31.5,5.7-46.4-4.9c4.5-1.4,8.7-0.9,12.9-1.7
	s8.6-1.1,12.7-3.3c4.1-2.2,8-4.9,11.5-8c0.2-2.4-0.9-1.2-1.6-1.1c-10.5,3.8-20.4,1.3-30.8-4.8c7.7-2.7,15.5-1,22.1-7.1
	c6.3-5.9,11.4-13.2,16.6-21.3c-9.5,5-19.1,6.7-29.3,3c12-3.4,22.4-10.6,30.2-24.1c-4.6,0.5-8.8,2.1-13,3.5c-5,1.6-10,3.7-15.1,4
	l0.1-0.6c4.6-3.7,9.7-5.6,14.6-7.9c7.3-3.3,13.3-9.1,18.6-16.6c-5.4,1.7-10.3,5-15.8,6c-0.6,0.1-1.5,0.9-1.5-0.9
	c4.3-2.7,8.2-6.1,11.5-9.9c-4.5,0.9-8.8,3.3-13.4,2.6c-5.2-0.8-10.1-2.8-14.3-5.9c12.5-4,24-8.4,33.9-18c-5.2,1-10.2,3.1-15.7,3.4
	c1.7-2.5,4.1-2.4,6.4-4.5h-14.3c8.1-5.8,16.7-6.2,24.2-12.9c-3.5-1.1-6.5,0.9-9.3-0.2c-0.2-1.6,1.6-1.2,1.5-3.3
	c-2.6,0-5.2,1.1-8.4,0.2c10.1-6,19.9-11.6,27-24.1c-2.6,0.7-3.9,3.1-5.7,4.1c-0.6,0.3-1.8,2.3-1.5-1c0.2-1.9-1.2-0.2-1.7,0
	c-4.5,1.6-8.9,3.5-14.6,2.3l5.5-3.5c-2.8-0.5-4.9-0.7-6.9-1.1c-1.6-0.3-3-1.3-3.7-2.7c-1.2-2.3-1.1-3.8,1.3-4
	c4.5-0.5,8.9-0.9,13.3-1.6c6.7-1,12-5.9,15.2-14.1c-3.3,2.2-6.1,4.6-9.6,3.5c0.3-2.2,2.6-1.1,2.9-3.1c-2-0.3-4.2-0.2-6.1-0.9
	s-3.7-2.8-4.5-6.1c9-2.9,18.8-3.5,24.7-16.2c-4.4,1.3-8.9,2.1-13.5,2.5c1.5-2.9,3.8-3.3,5.8-4.1c2.3-0.9,4.4-2.4,6-4.4
	c0.4-0.6,1-1.2,0.7-2c-0.4-1.2-1.3-0.6-1.9-0.4c-2.6,1-5.2,2.1-8,3.2c-0.1-2.8,2.1-2.3,2.4-4.3c-4,0.4-7.7,2.5-12,1.8
	c1.2-2.2,3.1-2.1,4.5-3.3c-1.8-1.8-4.2-1.7-5.9-4c7.5-3.3,14.6-7.3,20.2-15.3c-1.8-1.4-3.3,1.5-4.9,0c1-1.5,2.6-2.2,3.4-4.6
	c-3.4,1.4-6.5,3.2-10.4,3.7c1.3-2.6,3.2-4.9,5.6-6.7c4.3-3.4,8.2-7.5,11.3-12c3.3-5,3.6-7.5,1.3-13.6c-3-8.1-3-9.3,0.1-18.5
	c0.2,0.1,0.5,0.3,0.5,0.4c-0.4,7.5,0.4,14.3,4.2,20.4c1.6,2.6,2.1,6.5,2.7,9.9c1,5.9,3.6,9.7,7.8,11.6c2.7,1.2,5.3,2.7,8.7,4.4
	c-4.5,1.3-8.4,0-13.1-0.5l8.7,8.2c-2.1,0.5-3.7-1.9-5.5-0.5c7.4,7,14.8,14.5,25.1,11.8c-3.2,9.5-9.4,8.1-15.6,8.3l5.1,4.4
	c-6.2,1-10.5-3.3-15.7-5.6c1.6,5.9,5,9.1,7.4,13.5c-2,1-3.2-2.1-5.1-1.1c6.4,12.8,16.1,13.9,26.6,13.8c-4.2,6.2-9.3,3.5-13.8,4.4
	c0.1,2.3,2.4,2.7,2.5,5.2c-2.3-0.4-4.5-1.9-7.3-1.3c8.6,11.8,20,14.5,31,20.1c-3.4,3.5-6.9,5.2-11,4.8c-2.8-0.2-5.5-0.6-8.3-0.9
	c-0.6,0-1.6-1.2-1.3,0.9l4.8,2.4c0.1,0.8-0.1,1.3-0.8,0.8c-4.1,0-8-1.2-12.5-3.4c5.5,9.4,10.8,17.8,18.4,22.7
	c-0.7,1.5-1.5,0.7-2.1,0.9c-0.7-0.1-1.9-1.7-1.5,1c4.5,6.3,9.8,10.6,17.2,10.7c-2.6,2.4-4.9,1.7-7,2.2c-0.7,0.5-0.7,1,0,1.6l4.1,1.4
	c0.3,1.8-1,0.9-1.4,1.6c-4.8,1.1-9.1-2-13.5-3.7c8.9,12.7,19.5,17.7,33,12.3c-9.3,15.3-20.2,10.9-31,8.2c3.9,5.9,9.2,7.9,14.3,10.6
	c-0.5,2.5-1.8,1.1-2.9,1c-3.2,0.1-6-1.4-9-2.7c-1.2-0.5-2.3-0.9-1.1,1.6c0.2,0.5,0.1,1-0.2,1.5c-0.2,0.8-0.2,1.8,0.1,2.6
	c5.4,9,13.2,10.5,21,12c-4.7,2.5-9.5,1.7-14.6,1.5c1.1,2.5,3.4,1.8,4.6,4.3c-4.8,0.9-8.9-1.8-13.4-2.6c4.1,4.5,8.3,8.8,13.5,10.9
	c5.3,2.2,10.8,0.1,16.8-0.3c-4.7,9.4-11,12.1-18.6,11.8l10,4.6c-3.9,0.6-7.9,0.4-11.7-0.6c0.1,1.9,1.2,2.2,1.9,2.8
	c5.2,4.3,10.6,8.4,15.8,12.8c5.8,4.9,12,5.3,18.4,3.3l4.3-1.3c-5.5,9.2-12.3,13.9-20.2,16c-8.3,2.2-14.8-3.7-21.9-9.8
	c1.3,3.4,3.4,6.5,5.9,9.1c2.1,2.3,4.3,4.6,7.2,7.8c-7.1-1-12.5-4.4-17.9-8.4c5.9,8.2,10.3,18.5,19.6,22.7c-8.6,2.6-16,0.9-23.4-2.6
	c-0.5-0.2-1-0.6-1.5,0c0.3,0.3,0.6,0.6,0.7,1l2.1,2C923.1,721.9,922.2,721.3,921.5,721.2z"/>
<path class="st0" d="M1190.5,759.2c-7.2-1-14.6-1.3-21.4-6.1c-0.1,2.8,1.8,3.5,1.9,5.5c-7.5-1.6-13.5-7.3-19.1-13.6
	c-1.6-1.8-2.5-1.9-4.1,0.2c-4,5.4-8.2,10.5-12.4,15.5c-0.9,1.1-1.8,2.7-3.6,2l2.4-5.9c-5.5,4.3-10,10.5-16.8,12.4
	c1.4-6,4.4-10.8,5.2-17.4l-11.9,4.4l-0.6-1.1c4.6-3.7,9-7.6,12.3-15.2c-16.5,9.3-31.5,5.7-46.4-4.9c4.5-1.4,8.7-0.9,12.9-1.7
	s8.6-1.1,12.7-3.3c4.1-2.2,8-4.9,11.5-8c0.2-2.4-0.9-1.2-1.6-1.1c-10.5,3.8-20.4,1.3-30.8-4.8c7.7-2.7,15.5-1,22.1-7.1
	c6.3-5.9,11.4-13.2,16.6-21.3c-9.5,5-19.1,6.7-29.3,3c12-3.4,22.4-10.6,30.2-24.1c-4.6,0.5-8.8,2.1-13,3.5c-5,1.6-9.9,3.7-15.1,4
	l0.1-0.6c4.6-3.7,9.7-5.6,14.6-7.9c7.3-3.3,13.3-9.1,18.6-16.6c-5.4,1.7-10.3,5-15.8,6c-0.6,0.1-1.5,0.9-1.5-0.9
	c4.3-2.7,8.2-6.1,11.5-9.9c-4.5,0.9-8.8,3.3-13.4,2.6c-5.1-0.8-10-2.7-14.2-5.8c12.5-4,23.9-8.4,33.9-18c-5.2,1-10.2,3.1-15.7,3.4
	c1.7-2.5,4.1-2.4,6.4-4.5h-14.3c8.1-5.8,16.7-6.2,24.2-12.9c-3.5-1.1-6.5,0.9-9.3-0.2c-0.2-1.6,1.6-1.2,1.5-3.3
	c-2.6,0-5.2,1.1-8.4,0.2c10.1-6,19.9-11.6,26.9-24.1c-2.6,0.7-3.9,3.1-5.7,4.1c-0.6,0.3-1.8,2.3-1.5-1c0.2-1.9-1.2-0.2-1.7,0
	c-4.4,1.6-8.9,3.5-14.6,2.3l5.5-3.5c-2.8-0.5-4.9-0.7-6.9-1.1c-1.6-0.3-3-1.3-3.7-2.7c-1.2-2.3-1.1-3.8,1.3-4
	c4.4-0.5,8.9-0.9,13.3-1.6c6.7-1,12-5.9,15.2-14.1c-3.3,2.2-6.1,4.6-9.6,3.5c0.3-2.2,2.6-1.1,2.9-3.1c-2-0.3-4.2-0.2-6.1-0.9
	s-3.7-2.8-4.5-6.1c9-2.9,18.8-3.5,24.7-16.2c-4.4,1.3-8.9,2.1-13.5,2.5c1.5-2.9,3.8-3.3,5.8-4.1c2.3-0.9,4.4-2.4,5.9-4.3
	c0.4-0.6,1-1.2,0.7-2c-0.4-1.2-1.3-0.6-1.9-0.4c-2.6,1-5.2,2.1-8,3.2c-0.1-2.8,2.1-2.3,2.4-4.3c-4,0.4-7.7,2.5-12,1.8
	c1.2-2.2,3.1-2.1,4.5-3.3c-1.8-1.8-4.2-1.7-5.9-4c7.5-3.3,14.6-7.3,20.2-15.3c-1.8-1.4-3.3,1.5-4.9,0c1-1.5,2.6-2.2,3.4-4.6
	c-3.4,1.4-6.5,3.2-10.4,3.7c1.3-2.6,3.2-4.9,5.6-6.7c4.3-3.4,8.2-7.5,11.3-12c3.3-5,3.6-7.5,1.3-13.6c-3-8.1-3-9.3,0.1-18.5
	c0.2,0.1,0.5,0.3,0.5,0.4c-0.4,7.5,0.4,14.3,4.2,20.4c1.6,2.6,2.1,6.5,2.7,9.9c1,5.9,3.6,9.7,7.8,11.6c2.7,1.2,5.3,2.7,8.7,4.4
	c-4.6,1.3-8.4,0-13.1-0.5l8.7,8.2c-2.1,0.5-3.7-1.9-5.5-0.5c7.4,7,14.8,14.5,25.1,11.8c-3.2,9.5-9.4,8.1-15.6,8.3l5.1,4.4
	c-6.2,1-10.5-3.3-15.7-5.6c1.6,5.9,5,9.1,7.4,13.5c-2,1-3.2-2.1-5.1-1.1c6.4,12.8,16.1,13.9,26.6,13.8c-4.2,6.2-9.3,3.5-13.8,4.4
	c0.1,2.3,2.4,2.7,2.4,5.2c-2.3-0.4-4.5-1.9-7.3-1.3c8.6,11.8,20,14.5,31,20.1c-3.4,3.5-6.9,5.2-11,4.8c-2.8-0.2-5.5-0.6-8.3-0.9
	c-0.6,0-1.6-1.2-1.3,0.9l4.8,2.4c0.1,0.8-0.1,1.3-0.8,0.8c-4.1,0-8-1.2-12.5-3.4c5.5,9.4,10.8,17.8,18.4,22.7
	c-0.7,1.5-1.5,0.7-2.1,0.9c-0.7-0.1-1.9-1.7-1.5,1c4.5,6.3,9.8,10.6,17.2,10.7c-2.6,2.4-4.9,1.7-7,2.2c-0.7,0.5-0.7,1,0,1.6l4.1,1.4
	c0.3,1.8-1,0.9-1.4,1.6c-4.8,1.1-9.1-2-13.5-3.7c8.9,12.7,19.5,17.7,33,12.3c-9.3,15.3-20.2,10.9-31,8.2c3.9,5.9,9.2,7.9,14.3,10.6
	c-0.6,2.5-1.8,1.1-2.9,1c-3.2,0.1-6-1.4-9-2.7c-1.2-0.5-2.3-0.9-1.1,1.6c0.2,0.5,0.1,1-0.2,1.5c-0.2,0.8-0.2,1.8,0.1,2.6
	c5.4,9,13.2,10.5,21,12c-4.7,2.5-9.5,1.7-14.6,1.5c1.1,2.5,3.4,1.8,4.6,4.3c-4.8,0.9-8.9-1.8-13.4-2.6c4.1,4.5,8.3,8.8,13.4,10.9
	c5.3,2.2,10.8,0.1,16.8-0.3c-4.7,9.4-11,12.1-18.6,11.8l9.9,4.6c-3.9,0.6-7.9,0.4-11.7-0.6c0.1,1.9,1.2,2.2,1.9,2.8
	c5.2,4.3,10.6,8.4,15.8,12.8c5.8,4.9,12,5.3,18.4,3.3l4.3-1.3c-5.5,9.2-12.3,13.9-20.2,16c-8.3,2.2-14.8-3.7-21.9-9.8
	c1.3,3.4,3.4,6.5,5.9,9.1c2.1,2.3,4.3,4.6,7.2,7.8c-7.1-1-12.5-4.4-17.9-8.4c5.9,8.2,10.3,18.5,19.6,22.7
	c-8.6,2.6-16.1,0.9-23.4-2.6c-0.5-0.2-1-0.6-1.5,0c0.3,0.3,0.6,0.6,0.7,1l2.1,2C1192.1,759.9,1191.2,759.3,1190.5,759.2z"/>
<path class="st0" d="M1302.7,772.1c-9.7-1.4-19.6-1.8-28.7-8.2c-0.2,3.8,2.4,4.7,2.6,7.4c-10.1-2.2-18.1-9.8-25.7-18.3
	c-2.2-2.4-3.4-2.6-5.5,0.2c-5.4,7.2-11,14-16.7,20.9c-1.2,1.5-2.4,3.6-4.9,2.7l3.3-7.9c-7.3,5.8-13.5,14.1-22.5,16.7
	c1.9-8,5.9-14.5,6.9-23.4l-16,5.9l-0.8-1.4c6.2-4.9,12.1-10.2,16.6-20.4c-22.2,12.5-42.3,7.7-62.2-6.6c6-1.9,11.7-1.2,17.3-2.2
	c5.8-1,11.6-1.5,17.1-4.5c5.5-3,10.7-6.6,15.4-10.8c0.3-3.2-1.2-1.6-2.1-1.5c-14.1,5.2-27.4,1.7-41.4-6.4
	c10.4-3.6,20.8-1.3,29.6-9.5c8.4-7.9,15.3-17.8,22.3-28.6c-12.7,6.7-25.7,9-39.3,4c16.2-4.6,30.1-14.2,40.6-32.4
	c-6.2,0.6-11.8,2.9-17.5,4.7c-6.7,2.2-13.3,5-20.3,5.4l0.1-0.8c6.1-4.9,13-7.5,19.6-10.5c9.8-4.4,17.9-12.2,25-22.2
	c-7.2,2.3-13.9,6.8-21.2,8.1c-0.9,0.1-2,1.2-2-1.2c5.8-3.7,11-8.1,15.4-13.3c-6,1.2-11.8,4.5-18,3.5c-6.9-1-13.4-3.7-19.1-7.7
	c16.7-5.3,32.1-11.3,45.5-24.1c-6.9,1.3-13.6,4.1-21,4.6c2.3-3.4,5.5-3.2,8.6-6h-19.1c10.9-7.8,22.4-8.3,32.5-17.3
	c-4.7-1.4-8.7,1.2-12.5-0.2c-0.3-2.2,2.2-1.7,2-4.4c-3.5,0-7,1.5-11.3,0.2c13.6-8,26.8-15.5,36.2-32.3c-3.5,1-5.2,4.1-7.7,5.5
	c-0.8,0.4-2.4,3.1-2-1.3c0.2-2.6-1.6-0.3-2.2,0c-6,2.2-11.9,4.7-19.6,3l7.3-4.7c-3.8-0.6-6.6-0.9-9.2-1.5c-2.1-0.4-4-1.7-5-3.7
	c-1.6-3.1-1.5-5.1,1.8-5.4c6-0.6,11.9-1.3,17.9-2.2c9-1.4,16.1-7.9,20.4-19c-4.4,2.9-8.2,6.1-12.8,4.6c0.5-2.9,3.5-1.5,3.9-4.2
	c-2.7-0.4-5.6-0.3-8.2-1.3c-2.8-1.1-5-3.8-6.1-8.1c12.1-3.9,25.2-4.6,33.1-21.8c-5.9,1.7-12,2.9-18.1,3.4c2.1-3.9,5.1-4.4,7.8-5.6
	c3.1-1.2,5.9-3.2,8-5.8c0.6-0.8,1.3-1.6,0.9-2.8c-0.6-1.6-1.7-0.8-2.5-0.5c-3.5,1.3-7,2.8-10.8,4.4c-0.1-3.7,2.8-3.1,3.3-5.8
	c-5.3,0.6-10.3,3.3-16.1,2.3c1.5-3,4.2-2.8,6-4.5c-2.4-2.4-5.6-2.3-8-5.4c10.1-4.4,19.6-9.8,27.2-20.6c-2.4-1.9-4.4,2.1-6.6,0.1
	c1.3-2,3.5-2.9,4.6-6.1c-4.6,1.9-8.7,4.3-13.9,5c2.1-4.4,4.8-6.7,7.6-9c5.5-4.6,10.8-9.5,15.2-16.1s4.8-10.1,1.8-18.2
	c-4-10.9-4-12.5,0.2-24.8c0.2,0.2,0.7,0.4,0.6,0.5c-0.6,10,0.6,19.1,5.6,27.4c2.1,3.5,2.8,8.7,3.6,13.3c1.4,8,4.8,13,10.5,15.6
	c3.6,1.7,7.2,3.6,11.7,6c-6.1,1.7-11.2,0-17.5-0.7l11.6,11.1c-2.8,0.6-4.9-2.5-7.3-0.6c10,9.4,19.8,19.4,33.7,15.9
	c-4.3,12.8-12.6,10.9-21,11.1l6.9,5.9c-8.3,1.3-14.1-4.4-21.1-7.5c2.1,8,6.7,12.3,9.9,18.1c-2.7,1.3-4.2-2.8-6.9-1.5
	c8.5,17.2,21.6,18.6,35.8,18.6c-5.7,8.4-12.5,4.7-18.5,6c0.2,3.1,3.2,3.6,3.3,7c-3.1-0.6-6.1-2.5-9.8-1.8
	c11.5,15.8,26.9,19.4,41.6,27c-4.5,4.7-9.3,6.9-14.7,6.5c-3.7-0.3-7.4-0.8-11.1-1.2c-0.8,0-2.1-1.7-1.8,1.2l6.5,3.3
	c0.1,1.1-0.1,1.8-1,1.1c-5.5,0-10.8-1.6-16.8-4.5c7.4,12.6,14.4,23.9,24.7,30.5c-1,2-2,0.9-2.8,1.2c-0.9-0.1-2.6-2.3-2.1,1.4
	c6.1,8.4,13.1,14.2,23.2,14.4c-3.5,3.2-6.6,2.3-9.4,2.9c-0.9,0.7-0.9,1.4,0,2.1l5.6,1.8c0.5,2.5-1.4,1.2-1.9,2.1
	c-6.5,1.4-12.2-2.7-18.1-4.9c11.9,17.1,26.2,23.8,44.3,16.5c-12.5,20.5-27.1,14.7-41.7,11c5.2,7.9,12.4,10.6,19.2,14.3
	c-0.7,3.3-2.5,1.5-3.8,1.3c-4.2,0.1-8.1-1.8-12-3.5c-1.6-0.7-3.1-1.2-1.5,2.1c0.3,0.7,0.2,1.4-0.2,2c-0.3,1.1-0.2,2.4,0.2,3.5
	c7.3,12,17.7,14.1,28.2,16.1c-6.3,3.3-12.8,2.3-19.6,2.1c1.4,3.3,4.6,2.4,6.2,5.7c-6.4,1.2-12-2.5-18-3.5c5.6,6,11.2,11.8,18.1,14.7
	c7.2,3,14.4,0.1,22.6-0.4c-6.3,12.7-14.8,16.2-25,15.8l13.3,6.2c-6,1-10.8,0.2-15.7-0.8c0.1,2.6,1.6,3,2.6,3.8
	c7,5.8,14.2,11.3,21.2,17.1c7.8,6.5,16.1,7.2,24.7,4.5l5.8-1.8c-7.4,12.4-16.5,18.6-27.1,21.4c-11.2,2.9-19.8-4.9-29.4-13.1
	c1.8,4.6,4.5,8.8,8,12.3c2.8,3.1,5.7,6.2,9.6,10.4c-9.6-1.3-16.8-6-24-11.2c7.9,11,13.8,24.8,26.3,30.5c-11.5,3.4-21.5,1.2-31.4-3.5
	c-0.7-0.3-1.3-0.8-2,0c0.4,0.4,0.8,0.8,0.9,1.4l2.9,2.7C1304.8,773.1,1303.6,772.3,1302.7,772.1z"/>
<path class="st0" d="M1417.7,789.1c-9.7-1.4-19.6-1.8-28.7-8.2c-0.2,3.8,2.4,4.7,2.6,7.4c-10.1-2.2-18.1-9.8-25.7-18.3
	c-2.2-2.4-3.4-2.6-5.5,0.2c-5.4,7.2-11,14-16.7,20.9c-1.2,1.5-2.4,3.6-4.9,2.7l3.3-7.9c-7.3,5.8-13.5,14.1-22.5,16.7
	c1.9-8,5.9-14.5,6.9-23.4l-16,5.9l-0.8-1.4c6.2-4.9,12.1-10.2,16.6-20.4c-22.2,12.5-42.3,7.7-62.2-6.6c6-1.9,11.7-1.2,17.3-2.2
	c5.8-1,11.6-1.5,17.1-4.5c5.5-3,10.7-6.6,15.4-10.8c0.3-3.2-1.2-1.6-2.1-1.5c-14.1,5.2-27.4,1.7-41.4-6.4
	c10.4-3.6,20.8-1.3,29.6-9.5c8.4-7.9,15.3-17.8,22.3-28.6c-12.7,6.7-25.7,9-39.3,4c16.2-4.6,30.1-14.2,40.6-32.4
	c-6.2,0.6-11.8,2.9-17.5,4.7c-6.7,2.2-13.3,5-20.3,5.4l0.1-0.8c6.1-4.9,13-7.5,19.6-10.5c9.8-4.4,17.9-12.2,25-22.2
	c-7.2,2.3-13.9,6.8-21.2,8.1c-0.9,0.1-2,1.2-2-1.2c5.8-3.7,11-8.1,15.4-13.3c-6,1.2-11.8,4.5-18,3.5c-6.9-1-13.4-3.7-19.1-7.7
	c16.7-5.3,32.1-11.3,45.5-24.1c-6.9,1.3-13.6,4.1-21,4.6c2.3-3.4,5.5-3.2,8.6-6h-19.1c10.9-7.8,22.4-8.3,32.5-17.3
	c-4.7-1.4-8.7,1.2-12.5-0.2c-0.3-2.2,2.2-1.7,2-4.4c-3.5,0-7,1.5-11.3,0.2c13.6-8,26.8-15.5,36.2-32.3c-3.5,1-5.2,4.1-7.7,5.5
	c-0.8,0.4-2.4,3.1-2-1.3c0.2-2.6-1.6-0.3-2.2,0c-6,2.2-11.9,4.7-19.6,3l7.3-4.7c-3.8-0.6-6.6-0.9-9.2-1.5c-2.1-0.4-4-1.7-5-3.7
	c-1.6-3.1-1.5-5.1,1.8-5.4c6-0.6,11.9-1.3,17.9-2.2c9-1.4,16.1-7.9,20.4-19c-4.4,2.9-8.2,6.1-12.8,4.6c0.5-2.9,3.5-1.5,3.9-4.2
	c-2.7-0.4-5.6-0.3-8.2-1.3c-2.8-1.1-5-3.8-6.1-8.1c12.1-3.9,25.2-4.6,33.1-21.8c-5.9,1.7-12,2.9-18.1,3.4c2.1-3.9,5.1-4.4,7.8-5.6
	c3.1-1.2,5.9-3.2,8-5.8c0.6-0.8,1.3-1.6,0.9-2.8c-0.6-1.6-1.7-0.8-2.5-0.5c-3.5,1.3-7,2.8-10.8,4.4c-0.1-3.7,2.8-3.1,3.3-5.8
	c-5.3,0.6-10.3,3.3-16.1,2.3c1.5-3,4.2-2.8,6-4.5c-2.4-2.4-5.6-2.3-8-5.4c10.1-4.4,19.6-9.8,27.2-20.6c-2.4-1.9-4.4,2.1-6.6,0.1
	c1.3-2,3.5-2.9,4.6-6.1c-4.6,1.9-8.7,4.3-13.9,5c2.1-4.4,4.8-6.7,7.6-9c5.5-4.6,10.8-9.5,15.2-16.1s4.8-10.1,1.8-18.2
	c-4-10.9-4-12.5,0.2-24.8c0.2,0.2,0.7,0.4,0.6,0.5c-0.6,10,0.6,19.1,5.6,27.4c2.1,3.5,2.8,8.7,3.6,13.3c1.4,8,4.8,13,10.5,15.6
	c3.6,1.7,7.2,3.6,11.7,6c-6.1,1.7-11.2,0-17.5-0.7l11.6,11.1c-2.8,0.6-4.9-2.5-7.3-0.6c10,9.4,19.8,19.4,33.7,15.9
	c-4.3,12.8-12.6,10.9-21,11.1l6.9,5.9c-8.3,1.3-14.1-4.4-21.1-7.5c2.1,8,6.7,12.3,9.9,18.1c-2.7,1.3-4.2-2.8-6.9-1.5
	c8.5,17.2,21.6,18.6,35.8,18.6c-5.7,8.4-12.5,4.7-18.5,6c0.2,3.1,3.2,3.7,3.3,7c-3.1-0.6-6.1-2.5-9.8-1.8
	c11.5,15.8,26.9,19.4,41.6,27c-4.5,4.7-9.3,6.9-14.7,6.5c-3.7-0.3-7.4-0.8-11.1-1.2c-0.8,0-2.1-1.7-1.8,1.2l6.5,3.3
	c0.1,1.1-0.1,1.8-1,1.1c-5.5,0-10.8-1.6-16.8-4.5c7.4,12.6,14.4,23.9,24.7,30.5c-1,2-2,0.9-2.8,1.2c-0.9-0.1-2.6-2.3-2.1,1.4
	c6.1,8.4,13.1,14.2,23.2,14.4c-3.5,3.2-6.6,2.3-9.4,2.9c-0.9,0.7-0.9,1.4,0,2.1l5.6,1.8c0.5,2.5-1.4,1.2-1.9,2.1
	c-6.5,1.4-12.2-2.7-18.1-4.9c11.9,17.1,26.2,23.8,44.3,16.5c-12.5,20.5-27.1,14.7-41.7,11c5.2,7.9,12.4,10.6,19.2,14.3
	c-0.7,3.3-2.5,1.5-3.8,1.3c-4.2,0.1-8.1-1.8-12-3.5c-1.6-0.7-3.1-1.2-1.5,2.1c0.3,0.7,0.2,1.4-0.2,2c-0.3,1.1-0.2,2.4,0.2,3.5
	c7.3,12,17.7,14.1,28.2,16.1c-6.3,3.3-12.8,2.3-19.6,2.1c1.4,3.3,4.6,2.4,6.2,5.7c-6.4,1.2-12-2.5-18-3.5c5.6,6,11.2,11.8,18.1,14.7
	c7.2,3,14.4,0.1,22.6-0.4c-6.3,12.7-14.8,16.2-25,15.8l13.3,6.2c-6,1-10.8,0.2-15.7-0.8c0.1,2.6,1.6,3,2.6,3.8
	c7,5.8,14.2,11.3,21.2,17.1c7.8,6.5,16.1,7.2,24.7,4.5l5.8-1.8c-7.4,12.4-16.5,18.6-27.1,21.4c-11.2,2.9-19.8-4.9-29.4-13.1
	c1.8,4.6,4.5,8.8,8,12.3c2.8,3.1,5.7,6.2,9.6,10.4c-9.6-1.3-16.8-6-24-11.2c7.9,11,13.8,24.8,26.3,30.5c-11.5,3.4-21.5,1.2-31.4-3.5
	c-0.7-0.3-1.3-0.8-2,0c0.4,0.4,0.8,0.8,0.9,1.4l2.9,2.7C1419.8,790.1,1418.6,789.3,1417.7,789.1z"/>
<path class="st0" d="M1559.7,771.6c-13.5-1.9-27.3-2.5-40-11.5c-0.2,5.2,3.4,6.5,3.6,10.3c-14.1-3-25.2-13.6-35.8-25.5
	c-3-3.4-4.7-3.6-7.6,0.3c-7.5,10-15.4,19.6-23.3,29.1c-1.7,2-3.4,5-6.8,3.7l4.6-11.1c-10.2,8.1-18.8,19.6-31.4,23.2
	c2.6-11.2,8.2-20.3,9.6-32.6l-22.3,8.2l-1.2-2c8.6-6.9,16.9-14.2,23.1-28.5c-30.9,17.4-58.9,10.7-86.8-9.2
	c8.3-2.6,16.3-1.7,24.1-3.1c8-1.5,16.2-2,23.8-6.2c7.7-4.2,14.9-9.2,21.5-15c0.4-4.5-1.7-2.2-3-2c-19.6,7.2-38.2,2.4-57.7-8.9
	c14.5-5,29-1.8,41.3-13.2c11.8-11,21.3-24.8,31.1-39.8c-17.8,9.3-35.8,12.5-54.8,5.6c22.5-6.4,41.9-19.8,56.6-45.2
	c-8.6,0.8-16.5,4-24.4,6.5c-9.4,3-18.6,6.9-28.3,7.5l0.1-1.1c8.6-6.8,18.1-10.5,27.4-14.7c13.6-6.2,24.9-17,34.8-31
	c-10,3.2-19.3,9.5-29.6,11.3c-1.2,0.2-2.8,1.7-2.8-1.7c8-5.1,15.3-11.4,21.5-18.6c-8.4,1.7-16.4,6.3-25.1,4.8
	c-9.6-1.4-18.7-5.1-26.6-10.8c23.3-7.4,44.8-15.7,63.4-33.6c-9.6,1.8-19,5.7-29.3,6.4c3.2-4.7,7.7-4.5,12-8.4H1395
	c15.1-10.9,31.2-11.5,45.3-24.1c-6.6-2-12.1,1.8-17.4-0.3c-0.4-3,3.1-2.3,2.8-6.1c-4.8,0.1-9.8,2.1-15.8,0.3
	c18.9-11.2,37.3-21.7,50.4-45.1c-4.8,1.4-7.3,5.7-10.7,7.6c-1.1,0.6-3.3,4.4-2.8-1.9c0.3-3.6-2.2-0.4-3.1,0
	c-8.3,3-16.6,6.6-27.3,4.2l10.2-6.5c-5.3-0.9-9.1-1.3-12.9-2.1c-3-0.5-5.6-2.4-6.9-5.1c-2.3-4.3-2.1-7.1,2.5-7.5
	c8.3-0.9,16.6-1.8,24.9-3.1c12.5-2,22.5-11.1,28.4-26.5c-6.2,4-11.5,8.5-17.9,6.5c0.7-4.1,4.9-2,5.5-5.8c-3.8-0.5-7.8-0.4-11.4-1.8
	c-3.9-1.5-7-5.3-8.5-11.3c16.8-5.4,35.2-6.5,46.2-30.4c-8.2,2.4-16.7,4-25.2,4.7c2.9-5.4,7.2-6.1,10.9-7.8c4.2-1.8,8-4,11.1-8.1
	c0.8-1.1,1.9-2.2,1.3-3.8c-0.8-2.2-2.4-1.1-3.5-0.7c-4.9,1.8-9.8,3.9-15,6.1c-0.1-5.2,3.9-4.3,4.6-8.1c-7.4,0.8-14.4,4.6-22.4,3.3
	c2.1-4.2,5.8-3.9,8.4-6.2c-3.3-3.4-7.8-3.2-11.1-7.5c14.1-6.1,27.4-13.7,37.8-28.7c-3.4-2.6-6.2,2.9-9.2,0.1c1.8-2.9,4.9-4,6.4-8.5
	c-6.4,2.6-12.2,6-19.4,7c2.9-6.1,6.7-9.3,10.5-12.5c7.7-6.4,15.1-13.3,21.2-22.4c6.2-9.3,6.7-14.1,2.5-25.4
	c-5.6-15.1-5.5-17.4,0.2-34.5c0.3,0.2,0.9,0.5,0.9,0.8c-0.8,14,0.8,26.7,7.8,38.2c2.9,4.8,3.9,12.1,5,18.6
	c1.9,11.1,6.7,18.1,14.6,21.8c5,2.4,10,5.1,16.3,8.3c-8.5,2.4-15.6,0-24.4-0.9l16.2,15.4c-3.9,0.9-6.9-3.5-10.2-0.9
	c13.9,13.2,27.6,27.1,46.9,22.2c-6.1,17.8-17.6,15.1-29.2,15.5l9.7,8.2c-11.6,1.9-19.6-6.1-29.4-10.5c3,11.1,9.4,17.1,13.9,25.2
	c-3.8,1.8-5.9-4-9.6-2.1c11.9,24,30.2,26,49.8,25.9c-7.9,11.7-17.4,6.5-25.8,8.3c0.3,4.3,4.5,5.1,4.6,9.7c-4.4-0.8-8.4-3.5-13.7-2.5
	c16,22,37.5,27,57.9,37.6c-6.3,6.6-12.9,9.6-20.5,9c-5.2-0.4-10.3-1.1-15.5-1.7c-1.1,0-3-2.3-2.5,1.7l9.1,4.5
	c0.1,1.6-0.1,2.5-1.5,1.5c-7.7,0.1-15.1-2.2-23.3-6.3c10.2,17.6,20.1,33.3,34.5,42.5c-1.3,2.8-2.8,1.3-3.9,1.7
	c-1.3-0.2-3.6-3.2-2.9,1.9c8.5,11.8,18.3,19.8,32.3,20c-4.9,4.5-9.2,3.2-13.1,4c-1.3,1-1.3,2,0,2.9l7.8,2.6c0.7,3.4-1.9,1.7-2.6,2.9
	c-9,2-16.9-3.8-25.2-6.9c16.6,23.8,36.5,33.2,61.8,23c-17.4,28.6-37.8,20.5-58.1,15.4c7.2,11,17.3,14.8,26.8,19.9
	c-1,4.7-3.4,2-5.4,1.8c-5.9,0.1-11.3-2.6-16.8-5c-2.2-1-4.3-1.7-2.1,3c0.6,1.1,0.1,1.9-0.3,2.7c-0.6,1.7-0.1,3.2,0.3,4.8
	c10.1,16.8,24.6,19.6,39.3,22.5c-8.8,4.7-17.8,3.3-27.3,2.9c2,4.6,6.4,3.3,8.6,8c-9,1.7-16.7-3.5-25-4.9
	c7.7,8.4,15.6,16.4,25.2,20.4c10,4.2,20.1,0.2,31.4-0.5c-8.9,17.6-20.6,22.6-34.9,22.1l18.6,8.6c-8.4,1.3-15.1,0.3-21.9-1.1
	c0.1,3.6,2.2,4.1,3.6,5.3c9.8,8,19.8,15.7,29.5,23.9c10.8,9.1,22.4,10,34.5,6.2l8.1-2.5c-10.3,17.2-23,26-37.8,29.8
	c-15.5,4-27.7-6.9-40.9-18.3c3.1,8.1,7.1,12.7,11.1,17.1s8,8.6,13.4,14.5c-13.4-1.8-23.5-8.3-33.5-15.6c11,15.3,19.3,34.5,36.7,42.5
	c-16.1,4.8-30,1.7-43.8-4.8c-0.9-0.4-1.9-1.1-2.8,0c0.6,0.5,1,1.2,1.3,1.9l4,3.8C1562.8,773.1,1561.1,772,1559.7,771.6z"/>
</svg>
