<?xml version="1.0" encoding="utf-8"?>
<!-- Generator: Adobe Illustrator 21.0.0, SVG Export Plug-In . SVG Version: 6.00 Build 0)  -->
<svg version="1.1" id="Layer_1" xmlns="http://www.w3.org/2000/svg" xmlns:xlink="http://www.w3.org/1999/xlink" x="0px" y="0px"
	 viewBox="0 0 2062.9 979.7" style="enable-background:new 0 0 2062.9 979.7;" xml:space="preserve">
<style type="text/css">
	.st0{fill:#304156;}
</style>
<path class="st0" d="M197.2,842.1c-12.5-2.3-25.1-3-36.9-13.8c-0.2,6.3,3.1,7.8,3.3,12.4c-13-3.6-23.2-16.3-33-30.5
	c-2.8-4-4.3-4.3-7,0.4c-6.9,12-14.2,23.4-21.4,34.8c-1.6,2.5-3.1,6-6.3,4.5l4.2-13.2c-9.4,9.7-17.3,23.5-28.9,27.8
	c2.4-13.3,7.6-24.3,8.9-39l-20.5,9.8l-1.1-2.4c7.9-8.2,15.6-16.9,21.3-34.1c-28.4,20.9-54.2,12.8-79.9-11c7.7-3.1,15-2,22.2-3.7
	c7.4-1.8,14.9-2.5,21.9-7.5c7.3-5.2,13.9-11.2,19.8-18c0.4-5.4-1.5-2.6-2.8-2.4C43.1,764.9,26,759.1,8,745.6
	c13.3-6,26.8-2.2,38-15.9C56.9,716.6,65.8,700,74.7,682c-16.3,11.1-32.9,15-50.4,6.7c20.7-7.7,38.6-23.7,52.1-54.1
	c-8,1-15.2,4.8-22.5,7.8c-8.6,3.6-17.1,8.3-26.1,9l0.1-1.3c7.9-8.2,16.6-12.5,25.2-17.6c12.6-7.4,23-20.3,32.1-37.1
	c-9.2,3.8-17.8,11.3-27.2,13.5c-1.1,0.2-2.6,2-2.6-2.1c7.7-6.4,14.3-13.9,19.8-22.2c-7.7,2-15.1,7.5-23.1,5.8s-15.7-4.8-24.5-12.9
	c21.5-8.9,41.3-18.9,58.4-40.2c-8.9,2.1-17.5,6.8-27,7.7c3-5.6,7.1-5.4,11.1-10.1H45.6c13.9-13.1,28.7-13.8,41.7-28.9
	c-6.1-2.4-11.1,2.1-16-0.4c-0.4-3.6,2.8-2.8,2.6-7.3c-4.5,0.1-9,2.5-14.5,0.4c17.4-13.4,34.4-26,46.4-54c-4.4,1.7-6.7,6.9-9.9,9.1
	c-1,0.7-3,5.2-2.5-2.2c0.3-4.3-2-0.4-2.9,0c-7.7,3.6-15.3,7.9-25.2,5.1l9.4-7.8c-4.9-1-8.4-1.5-11.9-2.6c-3-0.9-5.4-3.2-6.4-6.1
	c-2.1-5.2-1.9-8.5,2.3-9c7.7-1,15.3-2.1,23-3.7c11.5-2.4,20.7-13.3,26.1-31.7c-5.7,4.8-10.6,10.2-16.5,7.7c0.6-4.9,4.6-2.4,5-7
	c-3.4-0.6-7.2-0.4-10.5-2.1c-3.6-1.8-6.4-6.3-7.8-13.6c15.5-6.4,32.4-7.8,42.5-36.4c-7.5,2.9-15.3,4.8-23.2,5.6
	c2.6-6.5,6.6-7.3,10-9.3c4.3-2.2,7.8-5.6,10.2-9.8c0.7-1.3,1.7-2.7,1.2-4.6c-0.7-2.7-2.2-1.4-3.2-0.9c-4.5,2.2-9,4.7-13.8,7.2
	c-0.1-6.2,3.6-5.1,4.2-9.6c-6.8,1-13.3,5.5-20.6,3.9c2-5,5.3-4.7,7.7-7.5c-3-4-7.2-3.9-10.2-9c13-7.3,25.2-16.4,34.8-34.3
	c-3.2-3.2-5.7,3.5-8.5,0.1c1.7-3.4,4.5-4.9,5.9-10.2c-5.9,3.1-11.2,7.1-17.9,8.4c2.7-7.3,6.2-11.2,9.7-15
	c7.1-7.6,13.9-15.9,19.5-26.8c5.7-11.1,6.1-16.9,2.3-30.4c-5.1-18.1-5.1-20.9,0.2-41.4c0.3,0.3,0.8,0.6,0.8,0.9
	c-0.8,16.8,0.8,32,7.2,45.7c2.7,5.8,3.6,14.6,4.6,22.2c1.8,13.3,6.2,21.7,13.4,26.1c4.6,2.8,9.2,6.1,15,9.9
	c-7.8,2.9-14.4,0-22.5-1.1l14.9,18.5c-3.6,1.1-6.4-4.2-9.4-1c12.8,15.8,25.4,32.4,43.2,26.5c-5.6,21.4-16.2,18.1-26.9,18.6l8.8,9.9
	c-10.7,2.2-18.1-7.3-27.1-12.6c2.7,13.3,8.6,20.5,12.8,30.2c-3.5,2.1-5.4-4.8-8.9-2.5c11,28.7,27.8,31.1,45.9,31
	c-7.3,14-16,7.8-23.8,10c0.2,5.2,4.1,6.1,4.2,11.7c-4-0.9-7.8-4.2-12.6-3c14.8,26.4,34.5,32.4,53.3,45c-5.8,7.9-11.9,11.5-18.9,10.8
	c-4.8-0.5-9.5-1.4-14.3-2c-1,0-2.7-2.8-2.3,2l8.3,5.5c0.1,1.9-0.1,3-1.3,1.8c-7.1,0.1-13.9-2.6-21.5-7.5
	c9.4,21.1,18.5,39.9,31.7,50.9c-1.2,3.3-2.6,1.5-3.6,2c-1.2-0.2-3.3-3.8-2.6,2.3c7.8,14.1,16.9,23.7,29.7,24
	c-4.5,5.4-8.4,3.8-12,4.8c-1,0.7-1.2,2.1-0.5,3.1c0.1,0.2,0.3,0.3,0.5,0.5l7.1,3.1c0.6,4.1-1.8,2-2.4,3.5
	c-8.3,2.4-15.6-4.5-23.2-8.2c15.3,28.5,33.6,39.7,56.9,27.6c-16,34.3-34.8,24.5-53.5,18.5c6.7,13.1,15.9,17.7,24.7,23.8
	c-0.9,5.6-3.1,2.5-4.9,2.2c-5.4,0.2-10.4-3.1-15.5-5.9c-2-1.2-3.9-2-1.9,3.6c0.4,1.1,0.2,2.3-0.3,3.3c-0.6,2-0.1,3.9,0.2,5.8
	c9.3,20.1,22.7,23.5,36.2,26.9c-8.1,5.6-16.4,3.9-25.1,3.4c1.9,5.5,5.9,4,7.9,9.6c-8.2,2-15.4-4.1-23.1-5.8
	c7.1,10,14.3,19.7,23.2,24.5c9.2,5,18.5,0.2,29-0.6c-8.2,21.1-19,27.1-32.1,26.5l17.1,10.3c-7.7,1.6-13.9,0.4-20.1-1.3
	c0.1,4.3,2,4.9,3.3,6.3c9,9.6,18.2,18.8,27.2,28.6c10,10.9,20.6,12,31.8,7.5c2.2-0.9,4.3-1.8,7.4-3c-9.5,20.6-21.2,31.1-34.8,35.7
	c-14.3,4.8-25.5-8.2-37.7-21.9c2.9,9.7,6.5,15.2,10.2,20.5s7.3,10.3,12.4,17.4c-12.3-2.2-21.6-10-30.9-18.7
	c10.1,18.4,17.8,41.4,33.8,50.9c-14.8,5.8-27.7,2-40.3-5.8c-0.9-0.5-1.7-1.3-2.6,0c0.6,0.7,1,1.4,1.2,2.3l3.7,4.6
	C200.1,843.8,198.5,842.5,197.2,842.1z"/>
<path class="st0" d="M339.2,859.5c-12.5-2.9-25.1-3.8-36.9-17.4c-0.2,7.9,3.1,9.9,3.3,15.6c-13-4.6-23.2-20.6-33-38.5
	c-2.8-5.1-4.3-5.5-7,0.5c-6.9,15.2-14.2,29.5-21.4,44c-1.6,3.1-3.1,7.6-6.3,5.7l4.2-16.7c-9.4,12.3-17.3,29.6-28.9,35
	c2.4-16.8,7.6-30.6,8.9-49.2L201.7,851l-1.1-3c7.9-10.4,15.6-21.4,21.2-43c-28.4,26.3-54.2,16.2-79.9-13.8c7.7-3.9,15-2.5,22.2-4.7
	c7.4-2.2,14.9-3.1,21.9-9.4c7.5-6.8,14.1-14.4,19.8-22.7c0.4-6.8-1.5-3.3-2.8-3.1c-18.1,10.8-35.2,3.6-53.2-13.5
	c13.3-7.5,26.8-2.7,38-20c10.8-16.6,19.7-37.5,28.6-60.2c-16.3,14-32.9,18.9-50.4,8.4c20.7-9.7,38.6-30,52.1-68.2
	c-8,1.3-15.2,6-22.5,9.9c-8.6,4.6-17.1,10.4-26.1,11.3l0.1-1.6c7.9-10.3,16.6-15.8,25.2-22.2c12.6-9.3,23-25.6,32.1-46.8
	c-9.1,4.8-17.7,14.3-27.1,17c-1.1,0.3-2.6,2.5-2.6-2.6c7.1-7.2,13.7-16.6,19.8-28.1c-7.7,2.5-15.1,9.5-23.1,7.3s-15.7-6.1-24.5-16.3
	c21.5-11.2,41.3-23.8,58.4-50.8c-8.9,2.7-17.5,8.6-27,9.7c3-7.1,7.1-6.8,11.1-12.7h-24.6c13.9-16.5,28.7-17.4,41.7-36.4
	c-6.1-3-11.1,2.6-16-0.4c-0.4-4.6,2.8-3.5,2.6-9.2c-4.5,0.1-9,3.2-14.5,0.5c17.4-16.9,34.4-32.8,46.4-68.1
	c-4.4,2.1-6.7,8.7-9.9,11.5c-1,0.9-3,6.6-2.5-2.8c0.3-5.5-2-0.5-2.9,0c-7.7,4.6-15.3,10-25.2,6.4l9.4-9.8c-4.9-1.3-8.4-1.9-11.9-3.2
	c-2.5-0.9-4.9-2.9-6.4-7.7c-2.1-6.5-1.9-10.7,2.3-11.4c7.7-1.3,15.3-2.7,23-4.6c11.5-3,20.7-16.7,26.2-40
	c-5.7,6.1-10.6,12.9-16.5,9.7c0.6-6.1,4.6-3.1,5-8.8c-3.4-0.8-7.1-0.5-10.5-2.7c-3.6-2.3-6.4-8-7.8-17.1
	c15.5-8.1,32.4-9.8,42.5-45.9c-8,3.7-15.3,6.1-23.2,7.1c2.6-8.2,6.6-9.2,10-11.7c4.5-3.1,8.1-7.3,10.2-12.3c0.7-1.6,1.7-3.4,1.2-5.8
	c-0.7-3.4-2.2-1.7-3.2-1.1c-4.5,2.8-9,5.9-13.8,9.1c-0.1-7.9,3.6-6.5,4.2-12.2c-6.8,1.2-13.3,7-20.6,4.9c2-6.3,5.3-5.9,7.7-9.4
	c-3-5.1-7.2-4.9-10.2-11.4c13-9.2,25.2-20.7,34.9-43.3c-3.1-4-5.7,4.4-8.5,0.1c1.7-4.3,4.5-6.1,5.9-12.9c-5.9,3.9-11.2,9-17.9,10.6
	c2.7-9.3,6.2-14.1,9.7-18.9c7.1-9.7,13.9-20.1,19.5-33.9c5.7-14,6.1-21.3,2.3-38.4c-5.1-22.9-5.1-26.3,0.2-52.2
	c0.3,0.4,0.8,0.8,0.8,1.1c-0.8,21.1,0.8,40.3,7.2,57.7c2.7,7.3,3.6,18.4,4.6,28.1c1.8,16.8,6.2,27.3,13.4,32.9
	c4.6,3.6,9.2,7.7,15,12.6c-7.8,3.6-14.4-0.1-22.5-1.4l14.9,23.3c-3.6,1.4-6.4-5.3-9.4-1.3c12.8,19.9,25.5,40.9,43.2,33.5
	c-5.6,26.9-16.2,22.9-26.9,23.5l8.8,12.5c-10.7,2.8-18.1-9.2-27.1-15.9c2.7,16.8,8.6,25.8,12.8,38.1c-3.5,2.7-5.5-6-8.9-3.2
	c11,36.2,27.8,39.2,45.9,39.1c-7.3,17.6-16,9.8-23.8,12.6c0.2,6.5,4.1,7.7,4.2,14.7c-4-1.2-7.8-5.3-12.6-3.7
	c14.8,33.3,34.5,40.9,53.4,56.8c-5.8,10-11.9,14.6-18.9,13.6c-4.8-0.6-9.5-1.7-14.3-2.6c-1,0-2.7-3.5-2.3,2.6l8.3,6.9
	c0.1,2.4-0.1,3.7-1.3,2.3c-7.1,0.1-13.9-3.3-21.5-9.5c9.4,26.6,18.5,50.3,31.7,64.2c-1.2,4.1-2.6,1.9-3.6,2.6
	c-1.2-0.2-3.3-4.8-2.6,2.9c7.8,17.8,16.9,29.9,29.7,30.3c-4.5,6.8-8.4,4.8-12,6.1c-1.2,1.2-1.2,3.2,0,4.4l7.1,3.9
	c0.6,5.2-1.8,2.5-2.4,4.4c-8.3,3-15.6-5.7-23.2-10.4c15.3,36,33.6,50.1,56.9,34.8c-16,43.3-34.8,30.9-53.5,23.3
	c6.7,16.6,15.9,22.4,24.7,30.1c-0.9,7-3.1,3.1-5,2.8c-5.4,0.2-10.4-3.9-15.5-7.5c-2-1.5-3.9-2.5-1.9,4.5c0.4,1.4,0.2,2.8-0.3,4.1
	c-0.6,2.5-0.1,4.9,0.2,7.3c9.3,25.3,22.7,29.7,36.2,34c-8.1,7-16.4,4.9-25.1,4.3c1.9,7,5.9,5,8,12.1c-8.2,2.5-15.4-5.2-23.1-7.3
	c7.1,12.7,14.3,24.8,23.2,30.9c9.2,6.3,18.5,0.3,29-0.8c-8.2,26.6-19,34.1-32.1,33.4l17.1,13c-7.7,2-13.9,0.5-20.1-1.6
	c0.1,5.4,2,6.2,3.3,8c9,12.1,18.2,23.7,27.2,36.1c10,13.8,20.6,15.1,31.8,9.4c2.2-1.1,4.3-2.2,7.4-3.8c-9.5,26-21.2,39.2-34.8,45.1
	c-14.3,6.1-25.5-10.4-37.7-27.6c2,9.1,5.5,17.8,10.2,25.8c3.6,6.6,7.3,13,12.4,21.9c-12.3-2.8-21.6-12.6-30.9-23.6
	c10.1,23.1,17.7,52.2,33.7,64.1c-14.8,7.2-27.7,2.5-40.3-7.3c-0.9-0.7-1.7-1.6-2.6,0c0.6,0.9,1,1.9,1.2,2.9l3.7,5.8
	C342.1,861.7,340.5,860,339.2,859.5z"/>
<path class="st0" d="M471.9,858.2c-11.8-2.4-23.8-3.2-34.9-14.4c-0.2,6.6,3,8.2,3.2,13c-12.3-3.8-22-17.1-31.2-32
	c-2.6-4.2-4.1-4.6-6.6,0.4c-6.5,12.6-13.4,24.6-20.3,36.6c-1.5,2.6-3,6.3-5.9,4.7l4-13.9c-8.9,10.2-16.4,24.6-27.4,29.2
	c2.3-14,7.2-25.5,8.4-40.9l-19.4,10.3l-1-2.5c7.5-8.7,14.8-17.8,20.1-35.8c-26.9,21.9-51.4,13.5-75.7-11.5c7.3-3.3,14.2-2.1,21-3.9
	c7-1.8,14.1-2.6,20.8-7.8c7-5.5,13.3-11.9,18.8-18.9c0.4-5.7-1.5-2.8-2.6-2.5c-17.1,9-33.4,3-50.3-11.2c12.6-6.3,25.3-2.3,36-16.7
	c10.3-13.8,18.6-31.1,27.1-50.1c-15.5,11.7-31.2,15.7-47.8,7c19.6-8.1,36.5-24.9,49.4-56.7c-7.5,1.1-14.4,5-21.3,8.2
	c-8.2,3.8-16.2,8.7-24.7,9.4l0.1-1.3c7.5-8.6,15.8-13.2,23.9-18.5c11.9-7.8,21.8-21.3,30.4-39c-8.8,4-16.9,11.9-25.8,14.2
	c-1,0.2-2.5,2.1-2.4-2.2c6.8-6,12.9-13.8,18.8-23.3c-7.3,2.1-14.3,7.9-21.9,6s-14.9-5-23.2-13.5c20.4-9.3,39.1-19.8,55.3-42.2
	c-8.4,2.2-16.6,7.2-25.6,8c2.8-5.9,6.7-5.7,10.5-10.6h-23.3c13.2-13.7,27.2-14.5,39.5-30.3c-5.7-2.5-10.5,2.2-15.2-0.4
	c-0.4-3.8,2.7-2.9,2.4-7.7c-4.2,0.1-8.5,2.6-13.8,0.4c16.5-14.1,32.5-27.2,44-56.6c-4.2,1.7-6.4,7.2-9.4,9.6c-1,0.8-2.9,5.5-2.4-2.3
	c0.3-4.5-1.9-0.5-2.7,0c-7.3,3.8-14.5,8.3-23.8,5.3l8.9-8.2c-4.6-1.1-8-1.6-11.2-2.7c-2.3-0.8-4.6-2.4-6.1-6.4
	c-2-5.4-1.8-8.9,2.2-9.5c7.3-1.1,14.5-2.2,21.7-3.9c10.9-2.5,19.6-13.9,24.8-33.2c-5.4,5.1-10,10.7-15.6,8.1
	c0.6-5.1,4.3-2.6,4.8-7.3c-3.3-0.6-6.8-0.5-10-2.2c-3.4-1.9-6.1-6.6-7.4-14.2c14.7-6.8,30.7-8.1,40.3-38.1c-7.6,3-14.5,5.1-22,5.9
	c2.5-6.8,6.3-7.7,9.5-9.7c4.1-2.4,7.5-6,9.7-10.2c0.7-1.4,1.6-2.8,1.1-4.8c-0.7-2.8-2.1-1.4-3-0.9c-4.3,2.3-8.5,4.9-13.1,7.6
	c-0.1-6.5,3.4-5.4,4-10.1c-6.5,1-12.6,5.8-19.5,4.1c1.9-5.3,5.1-4.9,7.3-7.9c-2.9-4.2-6.8-4.1-9.7-9.5c12.3-7.7,23.9-17.2,33-36
	c-3-3.3-5.4,3.6-8.1,0.1c1.6-3.6,4.3-5.1,5.6-10.7c-5.6,3.3-10.6,7.5-16.9,8.8c2.5-7.7,5.9-11.7,9.2-15.7c6.7-8,13.2-16.7,18.5-28.1
	c5.4-11.7,5.8-17.7,2.2-31.9c-4.9-19-4.8-21.9,0.2-43.4c0.3,0.3,0.8,0.7,0.8,1c-0.7,17.6,0.7,33.5,6.8,47.9c2.6,6,3.4,15.3,4.4,23.3
	c1.6,13.9,5.8,22.7,12.7,27.4c4.4,2.9,8.7,6.4,14.2,10.4c-7.4,3-13.6-0.1-21.3-1.2l14.1,19.4c-3.4,1.1-6-4.4-8.9-1.1
	c12.1,16.5,24.1,34,40.9,27.8c-5.3,22.4-15.3,19-25.5,19.5l8.4,10.4c-10.1,2.3-17.1-7.7-25.6-13.2c2.6,13.9,8.2,21.5,12.1,31.6
	c-3.3,2.2-5.2-5-8.4-2.7c10.4,30.1,26.3,32.6,43.5,32.5c-6.9,14.7-15.2,8.2-22.5,10.4c0.2,5.4,3.9,6.4,4,12.2c-3.8-1-7.4-4.4-12-3.1
	c14,27.7,32.7,34,50.5,47.2c-5.5,8.3-11.3,12.1-17.9,11.3c-4.5-0.5-9-1.4-13.5-2.1c-0.9,0-2.6-2.9-2.2,2.1l7.9,5.7
	c0.1,2-0.1,3.1-1.3,1.9c-6.7,0.1-13.1-2.8-20.4-7.9c9,22.1,17.5,41.9,30.1,53.4c-1.2,3.5-2.4,1.6-3.4,2.1c-1.1-0.2-3.1-4-2.5,2.4
	c7.4,14.8,16,24.8,28.1,25.2c-4.3,5.6-8,4-11.4,5c-1,0.9-1.1,2.4-0.2,3.5c0.1,0.1,0.2,0.2,0.2,0.2l6.8,3.2c0.6,4.3-1.7,2.1-2.3,3.7
	c-7.9,2.5-14.8-4.7-22-8.6c14.5,29.9,31.9,41.7,53.9,28.9c-15.2,36-33,25.7-50.7,19.3c6.3,13.8,15.1,18.6,23.4,25
	c-0.9,5.8-3,2.6-4.7,2.3c-5.1,0.2-9.9-3.2-14.6-6.2c-1.9-1.2-3.7-2.1-1.8,3.7c0.3,1.1,0.2,2.4-0.3,3.4c-0.6,2.1-0.1,4.1,0.2,6
	c8.8,21.1,21.5,24.7,34.3,28.3c-7.6,5.9-15.5,4.1-23.8,3.6c1.8,5.8,5.6,4.2,7.5,10c-7.8,2.1-14.5-4.3-21.9-6.1
	c6.8,10.5,13.6,20.7,22,25.7c8.7,5.2,17.6,0.2,27.4-0.7c-7.7,22.2-18,28.4-30.4,27.8l16.2,10.8c-7.3,1.7-13.2,0.4-19.1-1.3
	c0.1,4.5,1.9,5.2,3.1,6.6c8.6,10.1,17.2,19.7,25.7,30c9.5,11.4,19.5,12.6,30.1,7.8c2-0.9,4.1-1.8,7-3.2c-9,21.7-20.1,32.6-33,37.5
	c-13.6,5.1-24.1-8.6-35.7-23c2,7.7,5.3,15,9.8,21.6c3.5,5.5,7,10.8,11.7,18.2c-11.6-2.3-20.5-10.4-29.2-19.7
	c9.6,19.2,16.8,43.4,32,53.4c-14,6-26.2,2.1-38.2-6.1c-0.8-0.5-1.6-1.3-2.4,0c0.6,0.7,0.9,1.5,1.1,2.4l3.5,4.8
	C474.5,860,473.1,858.6,471.9,858.2z"/>
<path class="st0" d="M1464.8,919.3c-11.7-1.8-23.5-2.5-34.5-11.2c-0.2,5.1,2.9,6.3,3.1,10.1c-12.2-3-21.8-13.2-30.9-24.8
	c-2.6-3.3-4-3.5-6.6,0.3c-6.5,9.8-13.3,19-20.1,28.3c-1.5,2-2.9,4.9-5.9,3.6l3.9-10.8c-8.8,7.9-16.2,19.1-27.1,22.6
	c2.3-10.8,7.1-19.7,8.3-31.7l-19.2,8l-1-1.9c7.4-6.7,14.6-13.8,19.9-27.7c-26.6,17-50.8,10.4-74.9-8.9c7.2-2.5,14.1-1.6,20.8-3
	c6.9-1.4,14-2,20.6-6c6.7-4.1,13-9,18.6-14.6c0.4-4.4-1.4-2.1-2.6-2c-16.9,7-33,2.3-49.8-8.7c12.5-4.8,25.1-1.8,35.6-12.9
	c10.2-10.7,18.4-24.1,26.8-38.8c-15.3,9-30.8,12.2-47.2,5.4c19.4-6.3,36.2-19.3,48.8-43.9c-7.4,0.8-14.2,3.9-21.1,6.4
	c-8.1,2.9-16.1,6.7-24.4,7.3l0.1-1c7.4-6.6,15.6-10.2,23.6-14.3c11.8-6,21.5-16.5,30.1-30.2c-8.7,3.1-16.7,9.2-25.5,11
	c-1,0.2-2.4,1.6-2.4-1.7c7.1-5.1,13.3-11.1,18.6-18.1c-7.2,1.6-14.2,6.1-21.6,4.7c-8.4-1.5-16.3-5.1-22.9-10.5
	c20.1-7.2,38.7-15.3,54.7-32.7c-8.3,1.7-16.4,5.6-25.3,6.2c2.8-4.6,6.7-4.4,10.4-8.2h-23c13.1-10.6,26.9-11.2,39.1-23.5
	c-5.7-1.9-10.4,1.7-15-0.3c-0.4-2.9,2.6-2.3,2.4-5.9c-4.2,0.1-8.4,2-13.6,0.3c16.3-10.9,32.2-21.1,43.5-43.8
	c-4.2,1.3-6.3,5.6-9.2,7.4c-1,0.6-2.8,4.2-2.4-1.8c0.3-3.5-1.9-0.3-2.7,0c-7.2,3-14.3,6.4-23.6,4.1l8.8-6.3
	c-4.6-0.8-7.9-1.2-11.1-2.1c-2.7-0.6-4.9-2.5-6-5c-2-4.2-1.8-6.9,2.2-7.3c7.2-0.8,14.3-1.7,21.5-3c10.8-1.9,19.4-10.8,24.5-25.7
	c-5.4,3.9-9.9,8.3-15.4,6.3c0.6-3.9,4.3-2,4.7-5.7c-3.2-0.5-6.7-0.3-9.9-1.7c-3.4-1.5-6-5.1-7.3-11c14.5-5.2,30.3-6.3,39.9-29.5
	c-7,2.3-14.3,3.9-21.7,4.6c2.5-5.3,6.2-6,9.4-7.5c3.6-1.8,6.9-3.9,9.6-7.9c0.7-1,1.6-2.2,1.1-3.7c-0.7-2.2-2.1-1.1-3-0.7
	c-4.2,1.8-8.4,3.8-12.9,5.9c-0.1-5,3.3-4.2,3.9-7.8c-6.4,0.8-12.4,4.5-19.3,3.2c1.8-4.1,5-3.8,7.2-6.1c-2.8-3.3-6.7-3.2-9.6-7.3
	c12.2-5.9,23.6-13.3,32.7-27.9c-2.9-2.6-5.3,2.8-8,0.1c1.6-2.8,4.2-3.9,5.6-8.3c-5.5,2.5-10.5,5.8-16.7,6.8c2.5-6,5.8-9.1,9.1-12.1
	c6.6-6.2,13-12.9,18.3-21.8c5.3-9,5.8-13.7,2.2-24.7c-4.8-14.7-4.8-16.9,0.2-33.6c0.3,0.2,0.8,0.5,0.8,0.7
	c-0.7,13.6,0.7,26,6.8,37.1c2.5,4.7,3.4,11.8,4.3,18.1c1.6,10.8,5.8,17.6,12.6,21.2c4.3,2.3,8.6,4.9,14.1,8.1
	c-7.3,2.3-13.5,0-21.1-0.9l14,15c-3.4,0.9-6-3.4-8.8-0.8c12,12.8,23.8,26.4,40.5,21.5c-5.2,17.3-15.2,14.7-25.2,15.1l8.3,8
	c-10,1.8-16.9-5.9-25.3-10.2c2.6,10.8,8.1,16.6,12,24.5c-3.2,1.7-5.1-3.9-8.3-2.1c10.3,23.3,26,25.3,43,25.2
	c-6.9,11.4-15,6.3-22.3,8.1c0.2,4.2,3.8,5,4,9.5c-3.8-0.8-7.3-3.4-11.8-2.4c13.8,21.4,32.3,26.3,50,36.5c-5.4,6.4-11.2,9.4-17.7,8.8
	c-4.5-0.4-8.9-1.1-13.4-1.7c-0.9,0-2.6-2.3-2.2,1.7l7.8,4.4c0.1,1.5-0.1,2.4-1.3,1.5c-6.6,0-13-2.2-20.2-6.1
	c8.8,17.1,17.4,32.4,29.7,41.4c-1.1,2.7-2.4,1.2-3.4,1.7c-1.1-0.2-3.1-3.1-2.5,1.9c7.3,11.4,15.8,19.2,27.8,19.5
	c-4.2,4.4-7.9,3.1-11.3,3.9c-1.1,1-1.1,1.9,0,2.9l6.7,2.5c0.6,3.3-1.7,1.6-2.2,2.9c-7.8,2-14.6-3.7-21.8-6.7
	c14.3,23.2,31.5,32.2,53.3,22.4c-15,27.9-32.6,19.9-50.1,15c6.2,10.7,14.9,14.4,23.2,19.4c-0.9,4.5-3,2-4.6,1.8
	c-5.1,0.1-9.8-2.5-14.5-4.8c-1.9-0.9-3.7-1.6-1.8,2.9c0.3,0.9,0.2,1.9-0.3,2.6c-0.6,1.6-0.1,3.1,0.2,4.7
	c8.7,16.3,21.2,19.1,33.9,21.9c-7.6,4.5-15.4,3.2-23.6,2.8c1.7,4.5,5.6,3.2,7.4,7.8c-7.7,1.6-14.4-3.3-21.6-4.7
	c6.7,8.1,13.4,16,21.7,19.9c8.6,4,17.4,0.2,27.1-0.5c-7.6,17.2-17.8,22-30.1,21.5l16.1,8.4c-7.2,1.3-13,0.3-18.9-1
	c0.1,3.5,1.9,4,3.1,5.1c8.5,7.8,17,15.3,25.4,23.2c9.4,8.8,19.3,9.7,29.8,6.1l6.9-2.5c-8.9,16.8-19.8,25.3-32.6,29
	c-13.4,3.9-23.9-6.7-35.3-17.8c2.7,7.9,6.1,12.3,9.6,16.6s6.9,8.4,11.6,14.1c-11.5-1.8-20.2-8.1-28.9-15.2
	c9.5,14.9,16.6,33.6,31.6,41.3c-13.9,4.7-25.9,1.6-37.8-4.7c-0.8-0.4-1.6-1-2.4,0c0.5,0.5,0.9,1.2,1.1,1.9l3.4,3.7
	C1467.4,920.7,1466,919.7,1464.8,919.3z"/>
<path class="st0" d="M1354.3,901.3c-13.2-1.8-26.5-2.5-38.9-11.2c-0.2,5.1,3.3,6.3,3.5,10.1c-13.7-3-24.6-13.2-34.8-24.8
	c-2.9-3.3-4.6-3.5-7.4,0.3c-7.3,9.8-15,19-22.6,28.3c-1.6,2-3.3,4.9-6.6,3.6l4.4-10.8c-9.9,7.9-18.3,19.1-30.5,22.6
	c2.6-10.8,8-19.7,9.4-31.7l-21.6,8l-1.1-1.9c8.4-6.7,16.5-13.8,22.4-27.7c-30,17-57.3,10.4-84.4-8.9c8.1-2.5,15.9-1.6,23.4-3
	c7.8-1.4,15.7-2,23.2-6c7.5-4.1,14.5-9,20.9-14.6c0.4-4.4-1.6-2.1-2.9-2c-19.1,7-37.2,2.3-56.1-8.7c14.1-4.8,28.2-1.8,40.2-12.9
	c11.4-10.7,20.8-24.1,30.2-38.8c-17.3,9-34.8,12.2-53.3,5.4c21.9-6.3,40.8-19.3,55-43.9c-8.4,0.8-16,3.9-23.7,6.4
	c-9.1,2.9-18.1,6.7-27.6,7.3l0.1-1c8.3-6.6,17.6-10.2,26.6-14.3c13.2-6,24.2-16.5,33.9-30.2c-9.8,3.1-18.8,9.2-28.8,11
	c-1.2,0.2-2.8,1.6-2.7-1.7c7.8-5,14.9-11,20.9-18.1c-8.2,1.6-16,6.1-24.4,4.7c-9.3-1.4-18.2-5-25.8-10.5
	c22.7-7.2,43.6-15.3,61.7-32.7c-9.4,1.7-18.5,5.6-28.5,6.2c3.2-4.6,7.5-4.4,11.7-8.2h-25.9c14.7-10.6,30.3-11.2,44-23.5
	c-6.4-1.9-11.8,1.7-16.9-0.3c-0.4-2.9,3-2.3,2.7-5.9c-4.7,0.1-9.5,2-15.3,0.3c18.4-10.9,36.3-21.1,49-43.8
	c-4.7,1.3-7.1,5.6-10.4,7.4c-1.1,0.6-3.2,4.2-2.7-1.8c0.3-3.5-2.1-0.3-3,0c-8.1,3-16.1,6.4-26.6,4.1l9.9-6.3
	c-5.2-0.8-8.9-1.2-12.5-2.1c-2.9-0.5-5.4-2.4-6.8-5c-2.2-4.2-2-6.9,2.4-7.3c8.1-0.8,16.2-1.7,24.2-3c12.2-1.9,21.9-10.8,27.6-25.7
	c-6,3.9-11.2,8.3-17.4,6.3c0.6-3.9,4.8-2,5.3-5.7c-3.7-0.5-7.6-0.3-11.1-1.7c-3.8-1.5-6.8-5.1-8.3-11c16.4-5.2,34.2-6.3,44.9-29.5
	c-8,2.4-16.2,3.9-24.5,4.6c2.8-5.3,7-6,10.6-7.5c4-1.8,7.8-3.9,10.8-7.9c0.8-1,1.8-2.2,1.3-3.7c-0.8-2.2-2.3-1.1-3.4-0.7
	c-4.8,1.8-9.5,3.8-14.6,5.9c-0.1-5,3.8-4.2,4.4-7.8c-7.2,0.8-14,4.5-21.8,3.2c2.1-4.1,5.6-3.8,8.2-6.1c-3.2-3.3-7.6-3.2-10.8-7.3
	c13.7-5.9,26.6-13.3,36.8-27.9c-3.3-2.6-6,2.8-9,0.1c1.8-2.8,4.8-3.9,6.3-8.3c-6.2,2.5-11.8,5.8-18.9,6.8c2.8-6,6.5-9.1,10.2-12.1
	c7.5-6.2,14.7-12.9,20.6-21.8c6-9,6.5-13.7,2.4-24.7c-5.4-14.7-5.4-16.9,0.2-33.6c0.3,0.2,0.9,0.5,0.9,0.7
	c-0.8,13.6,0.8,26,7.6,37.1c2.9,4.7,3.8,11.8,4.8,18.1c1.8,10.8,6.5,17.6,14.2,21.2c4.9,2.3,9.7,4.9,15.8,8.1
	c-8.3,2.3-15.2,0-23.8-0.9l15.8,15c-3.8,0.9-6.7-3.4-10-0.8c13.5,12.8,26.9,26.4,45.6,21.5c-5.9,17.3-17.1,14.7-28.4,15.1l9.3,8
	c-11.3,1.8-19.1-5.9-28.6-10.2c2.9,10.8,9.1,16.6,13.5,24.5c-3.7,1.7-5.8-3.9-9.3-2.1c11.6,23.3,29.3,25.3,48.5,25.2
	c-7.7,11.4-16.9,6.3-25.1,8.1c0.3,4.2,4.3,5,4.4,9.5c-4.2-0.8-8.2-3.4-13.3-2.4c15.6,21.4,36.4,26.3,56.3,36.5
	c-6.1,6.4-12.6,9.4-20,8.8c-5-0.4-10.1-1.1-15.1-1.7c-1,0-2.9-2.3-2.4,1.7l8.8,4.4c0.1,1.5-0.1,2.4-1.4,1.5
	c-7.5,0-14.6-2.2-22.7-6.1c10,17.1,19.6,32.4,33.5,41.4c-1.3,2.7-2.7,1.2-3.8,1.7c-1.2-0.2-3.5-3.1-2.8,1.9
	c8.2,11.4,17.8,19.2,31.4,19.5c-4.8,4.4-8.9,3.1-12.7,3.9c-1.3,1-1.2,1.9,0,2.9l7.5,2.5c0.6,3.3-1.9,1.6-2.5,2.9
	c-8.8,2-16.5-3.7-24.5-6.7c16.2,23.2,35.5,32.2,60.1,22.4c-16.9,27.9-36.8,19.9-56.5,15c7.1,10.7,16.8,14.4,26.1,19.4
	c-1,4.5-3.3,2-5.2,1.8c-5.7,0.1-11-2.5-16.3-4.8c-2.2-0.9-4.2-1.6-2,2.9c0.4,0.9,0.2,1.9-0.3,2.6c-0.6,1.6-0.1,3.1,0.3,4.7
	c9.8,16.3,24,19.1,38.2,21.9c-8.5,4.5-17.3,3.2-26.6,2.8c2,4.5,6.3,3.2,8.4,7.8c-8.7,1.6-16.2-3.3-24.4-4.7
	c7.5,8.1,15.1,16,24.5,19.9c9.7,4,19.6,0.2,30.6-0.5c-8.6,17.2-20,22-33.9,21.5l18.1,8.4c-8.1,1.3-14.7,0.3-21.3-1
	c0.1,3.5,2.1,4,3.5,5.1c9.5,7.8,19.2,15.3,28.7,23.2c10.6,8.8,21.8,9.7,33.5,6.1l7.8-2.5c-10,16.8-22.4,25.3-36.8,29
	c-15.1,3.9-26.9-6.7-39.8-17.8c3,7.9,6.9,12.3,10.8,16.6s7.8,8.4,13.1,14.1c-13-1.8-22.8-8.1-32.6-15.2
	c10.7,14.9,18.7,33.6,35.7,41.3c-15.6,4.7-29.2,1.6-42.6-4.7c-0.9-0.4-1.8-1-2.7,0c0.6,0.5,1,1.1,1.2,1.9l3.9,3.7
	C1357.3,902.7,1355.7,901.7,1354.3,901.3z"/>
<path class="st0" d="M1571.9,926.2c-11.8-2.4-23.8-3.2-34.9-14.4c-0.2,6.6,3,8.2,3.2,13c-12.3-3.8-22-17.1-31.2-32
	c-2.6-4.2-4.1-4.6-6.7,0.4c-6.5,12.6-13.4,24.6-20.3,36.6c-1.5,2.6-3,6.3-5.9,4.7l4-13.9c-8.9,10.2-16.4,24.6-27.4,29.2
	c2.3-14,7.2-25.5,8.4-40.9l-19.4,10.3l-1-2.5c7.5-8.7,14.8-17.8,20.1-35.8c-26.9,21.9-51.4,13.5-75.7-11.5c7.3-3.3,14.2-2.1,21-3.9
	c7-1.8,14.1-2.6,20.8-7.8c7-5.5,13.3-11.9,18.8-18.9c0.4-5.7-1.5-2.8-2.6-2.5c-17.1,9-33.3,3-50.3-11.2c12.6-6.3,25.3-2.3,36-16.7
	c10.3-13.8,18.6-31.1,27.1-50.1c-15.5,11.7-31.2,15.7-47.8,7c19.6-8.1,36.6-24.9,49.4-56.7c-7.5,1.1-14.4,5-21.3,8.2
	c-8.2,3.8-16.2,8.7-24.7,9.4l0.1-1.3c7.5-8.6,15.8-13.2,23.9-18.5c11.9-7.8,21.8-21.3,30.4-39c-8.8,4-16.9,11.9-25.8,14.2
	c-1,0.2-2.5,2.1-2.4-2.2c6.8-6,12.9-13.8,18.8-23.3c-7.3,2.1-14.3,7.9-21.9,6s-14.9-5.1-23.2-13.6c20.4-9.3,39.1-19.8,55.3-42.2
	c-8.4,2.2-16.6,7.2-25.6,8c2.8-5.9,6.7-5.7,10.5-10.6h-23.3c13.2-13.7,27.2-14.5,39.5-30.3c-5.7-2.5-10.5,2.2-15.2-0.4
	c-0.4-3.8,2.7-2.9,2.4-7.7c-4.2,0.1-8.5,2.6-13.8,0.4c16.5-14.1,32.5-27.2,44-56.6c-4.2,1.7-6.4,7.2-9.4,9.6c-1,0.8-2.9,5.5-2.4-2.3
	c0.3-4.5-1.9-0.5-2.7,0c-7.3,3.8-14.5,8.3-23.8,5.3l8.9-8.2c-4.7-1.1-8-1.6-11.2-2.7c-2.3-0.8-4.6-2.4-6.1-6.4
	c-2-5.4-1.8-8.9,2.2-9.5c7.3-1.1,14.5-2.2,21.7-3.9c10.9-2.5,19.6-13.9,24.8-33.2c-5.4,5.1-10,10.7-15.6,8.1
	c0.6-5.1,4.3-2.6,4.8-7.3c-3.3-0.6-6.8-0.5-10-2.2c-3.4-1.9-6.1-6.6-7.4-14.2c14.7-6.8,30.7-8.1,40.3-38.1c-7.6,3-14.5,5.1-22,5.9
	c2.5-6.8,6.3-7.7,9.5-9.7c4.1-2.4,7.5-6,9.7-10.2c0.7-1.4,1.6-2.8,1.1-4.8c-0.7-2.8-2.1-1.4-3.1-0.9c-4.3,2.3-8.5,4.9-13.1,7.6
	c-0.1-6.5,3.4-5.4,4-10.1c-6.4,1-12.6,5.8-19.5,4.1c1.9-5.3,5.1-4.9,7.3-7.9c-2.9-4.2-6.8-4.1-9.7-9.5c12.3-7.7,23.9-17.2,33-36
	c-3-3.3-5.4,3.6-8.1,0.1c1.6-3.6,4.3-5.1,5.6-10.7c-5.6,3.3-10.6,7.5-16.9,8.8c2.5-7.7,5.9-11.7,9.2-15.7c6.7-8,13.2-16.7,18.5-28.1
	c5.4-11.7,5.8-17.7,2.2-31.9c-4.8-19-4.8-21.9,0.2-43.4c0.3,0.3,0.8,0.7,0.8,1c-0.7,17.6,0.7,33.5,6.8,47.9c2.6,6,3.4,15.3,4.3,23.3
	c1.7,13.9,5.8,22.7,12.7,27.4c4.4,3,8.7,6.4,14.2,10.4c-7.4,3-13.7,0-21.3-1.2l14.2,19.4c-3.4,1.1-6-4.4-8.9-1.1
	c12.1,16.5,24.1,34,40.9,27.8c-5.3,22.4-15.3,19-25.5,19.5l8.4,10.4c-10.1,2.3-17.1-7.7-25.6-13.2c2.6,13.9,8.2,21.5,12.1,31.6
	c-3.3,2.2-5.2-5-8.4-2.7c10.4,30.1,26.3,32.6,43.5,32.5c-6.9,14.7-15.2,8.2-22.5,10.4c0.2,5.4,3.9,6.4,4,12.2c-3.8-1-7.4-4.4-12-3.1
	c14,27.7,32.7,34,50.5,47.2c-5.5,8.3-11.3,12.1-17.9,11.3c-4.5-0.5-9-1.4-13.5-2.1c-0.9,0-2.6-2.9-2.2,2.1l7.9,5.7
	c0.1,2-0.1,3.1-1.3,1.9c-6.7,0.1-13.1-2.8-20.4-7.9c8.9,22.1,17.6,41.9,30.1,53.4c-1.2,3.5-2.4,1.6-3.4,2.1c-1.1-0.2-3.1-4-2.5,2.4
	c7.4,14.8,16,24.8,28.2,25.2c-4.3,5.6-8,4-11.4,5c-1,0.9-1.1,2.4-0.2,3.5c0.1,0.1,0.2,0.2,0.2,0.2l6.8,3.2c0.6,4.3-1.7,2.1-2.3,3.7
	c-7.9,2.5-14.8-4.7-22-8.6c14.5,29.9,31.9,41.7,53.9,28.9c-15.2,36-33,25.7-50.7,19.3c6.3,13.8,15.1,18.6,23.4,25
	c-0.9,5.8-3,2.6-4.7,2.3c-5.1,0.2-9.9-3.2-14.7-6.2c-1.9-1.2-3.7-2.1-1.8,3.7c0.3,1.1,0.2,2.4-0.3,3.4c-0.6,2.1-0.1,4.1,0.2,6
	c8.8,21.1,21.5,24.7,34.3,28.3c-7.7,5.9-15.5,4.1-23.8,3.6c1.8,5.8,5.6,4.2,7.5,10c-7.8,2.1-14.6-4.3-21.8-6.1
	c6.8,10.5,13.6,20.7,22,25.7c8.7,5.2,17.6,0.2,27.4-0.7c-7.7,22.2-18,28.4-30.4,27.8l16.2,10.8c-7.3,1.7-13.2,0.4-19.1-1.3
	c0.1,4.5,1.9,5.2,3.2,6.6c8.6,10.1,17.2,19.7,25.7,30c9.5,11.4,19.5,12.6,30.1,7.8c2-0.9,4.1-1.8,7-3.2c-9,21.7-20.1,32.6-33,37.5
	c-13.6,5.1-24.1-8.6-35.7-23c2,7.7,5.3,14.9,9.7,21.5c3.4,5.5,7,10.8,11.7,18.2c-11.7-2.3-20.5-10.4-29.2-19.7
	c9.6,19.2,16.8,43.4,32,53.4c-14,6-26.2,2.1-38.2-6.1c-0.8-0.5-1.6-1.3-2.4,0c0.6,0.7,0.9,1.5,1.1,2.4l3.5,4.8
	C1574.5,928,1573.1,926.6,1571.9,926.2z"/>
<path class="st0" d="M1712.9,883.4c-13.1-2.5-26.3-3.3-38.7-15c-0.2,6.8,3.3,8.5,3.5,13.5c-13.6-3.9-24.4-17.7-34.6-33.1
	c-2.9-4.4-4.5-4.7-7.4,0.4c-7.2,13.1-14.9,25.4-22.5,37.8c-1.6,2.7-3.3,6.5-6.6,4.9l4.4-14.4c-9.9,10.6-18.2,25.5-30.3,30.2
	c2.5-14.5,8-26.4,9.3-42.4l-21.5,10.7l-1.1-2.6c8.3-9,16.3-18.4,22.3-37.1c-29.8,22.7-56.9,13.9-83.8-11.9c8.1-3.4,15.8-2.2,23.3-4
	c7.8-1.9,15.6-2.7,23-8.1c7.7-5.7,14.7-12.2,20.8-19.5c0.4-5.9-1.6-2.9-2.9-2.6c-19,9.3-36.9,3.1-55.7-11.6
	c14-6.5,28.1-2.3,39.9-17.2c11.4-14.3,20.6-32.2,30-51.8c-17.2,12.1-34.5,16.3-52.9,7.2c21.8-8.4,40.6-25.8,54.7-58.8
	c-8.3,1.1-15.9,5.2-23.6,8.5c-9,3.9-18,9-27.4,9.7l0.1-1.4c8.3-8.9,17.4-13.6,26.4-19.1c13.2-8,24.1-22,33.7-40.3
	c-9.7,4.1-18.7,12.3-28.6,14.7c-1.2,0.2-2.7,2.2-2.7-2.2c7.5-6.2,14.3-14.3,20.8-24.2c-8.1,2.2-15.9,8.2-24.2,6.2s-16.5-5.3-25.7-14
	c22.6-9.7,43.3-20.5,61.3-43.7c-9.3,2.3-18.4,7.4-28.3,8.3c3.1-6.1,7.5-5.9,11.6-11h-25.8c14.6-14.2,30.1-15,43.7-31.4
	c-6.3-2.6-11.7,2.3-16.8-0.4c-0.4-3.9,3-3,2.7-7.9c-4.7,0.1-9.4,2.7-15.2,0.4c18.3-14.6,36-28.2,48.7-58.6
	c-4.7,1.8-7.1,7.5-10.4,9.9c-1.1,0.8-3.2,5.7-2.7-2.4c0.3-4.7-2.1-0.5-3,0c-8.1,3.9-16,8.6-26.4,5.5l9.9-8.5
	c-5.2-1.1-8.8-1.6-12.4-2.8c-2.6-0.8-5.1-2.5-6.7-6.6c-2.2-5.6-2-9.2,2.4-9.8c8-1.1,16.1-2.3,24.1-4c12.1-2.5,21.7-14.4,27.5-34.4
	c-6,5.2-11.1,11.1-17.3,8.4c0.6-5.3,4.8-2.6,5.3-7.6c-3.6-0.7-7.5-0.5-11.1-2.3c-3.8-2-6.8-6.9-8.2-14.7c16.3-7,34-8.4,44.6-39.5
	c-8.4,3.2-16,5.3-24.3,6.1c2.8-7.1,6.9-8,10.5-10.1c4.5-2.4,8.3-6.1,10.8-10.6c0.8-1.4,1.8-2.9,1.3-5c-0.8-2.9-2.3-1.5-3.4-0.9
	c-4.8,2.4-9.4,5.1-14.5,7.9c-0.1-6.8,3.7-5.6,4.4-10.5c-7.2,1.1-13.9,6-21.6,4.2c2.1-5.5,5.6-5.1,8.1-8.1c-3.2-4.4-7.5-4.2-10.7-9.8
	c13.6-7.9,26.4-17.8,36.6-37.3c-3.3-3.4-6,3.8-8.9,0.1c1.8-3.7,4.7-5.3,6.2-11.1c-6.2,3.4-11.7,7.8-18.8,9.1
	c2.8-8,6.5-12.1,10.2-16.2c7.4-8.3,14.6-17.3,20.5-29.1c6-12.1,6.4-18.3,2.4-33c-5.4-19.7-5.4-22.6,0.2-44.9c0.3,0.3,0.9,0.7,0.9,1
	c-0.8,18.2,0.8,34.7,7.6,49.6c2.8,6.3,3.8,15.8,4.8,24.2c1.8,14.4,6.5,23.5,14.1,28.3c4.9,3.1,9.6,6.6,15.7,10.8
	c-8.2,3.1-15.1,0-23.6-1.2l15.7,20.1c-3.8,1.2-6.7-4.6-9.9-1.1c13.4,17.1,26.7,35.2,45.3,28.8c-5.9,23.2-17,19.7-28.3,20.2l9.3,10.8
	c-11.2,2.4-19-7.9-28.4-13.7c2.9,14.4,9,22.2,13.4,32.8c-3.6,2.3-5.7-5.2-9.3-2.8c11.5,31.2,29.2,33.8,48.2,33.7
	c-7.7,15.2-16.8,8.5-25,10.8c0.3,5.6,4.3,6.6,4.4,12.7c-4.2-1-8.2-4.5-13.3-3.2c15.5,28.7,36.2,35.2,56,48.9
	c-6.1,8.6-12.5,12.5-19.8,11.7c-5-0.6-10-1.5-15-2.2c-1,0-2.9-3-2.4,2.2l8.8,5.9c0.1,2-0.1,3.2-1.4,2c-7.4,0.1-14.6-2.9-22.6-8.2
	c9.9,22.9,19.4,43.3,33.3,55.3c-1.3,3.6-2.7,1.6-3.8,2.2c-1.2-0.2-3.4-4.1-2.8,2.5c8.2,15.3,17.7,25.7,31.2,26
	c-4.8,5.8-8.9,4.1-12.6,5.2c-1.1,0.8-1.2,2.4-0.4,3.4c0.1,0.2,0.3,0.3,0.4,0.4l7.5,3.3c0.6,4.5-1.9,2.2-2.5,3.8
	c-8.7,2.6-16.4-4.9-24.3-8.9c16.1,31,35.3,43.1,59.7,30c-16.8,37.3-36.5,26.6-56.1,20c7,14.3,16.7,19.3,25.9,25.9
	c-1,6-3.3,2.7-5.2,2.4c-5.7,0.2-10.9-3.3-16.2-6.5c-2.1-1.2-4.1-2.2-2,3.9c0.4,1.2,0.2,2.5-0.3,3.5c-0.6,2.2-0.1,4.2,0.3,6.2
	c9.8,21.8,23.8,25.5,38,29.3c-8.5,6.1-17.2,4.2-26.4,3.7c1.9,6,6.2,4.3,8.3,10.4c-8.7,2.2-16.1-4.5-24.2-6.3
	c7.5,10.9,15,21.4,24.3,26.6c9.7,5.4,19.4,0.2,30.4-0.7c-8.6,22.9-19.9,29.4-33.7,28.7l18,11.2c-8.1,1.8-14.6,0.4-21.1-1.4
	c0.1,4.7,2.1,5.4,3.5,6.9c9.5,10.4,19.1,20.4,28.5,31c10.5,11.8,21.6,13,33.3,8.1c2.3-1,4.5-1.9,7.8-3.3
	c-9.9,22.4-22.2,33.8-36.6,38.8c-15,5.3-26.7-8.9-39.6-23.8c3,10.6,6.8,16.5,10.7,22.2s7.7,11.2,13,18.9
	c-12.9-2.4-22.7-10.8-32.4-20.3c10.7,19.9,18.6,45,35.4,55.2c-15.5,6.2-29,2.2-42.3-6.3c-0.9-0.6-1.8-1.4-2.7,0
	c0.6,0.7,1,1.6,1.2,2.5l3.9,5C1715.9,885.3,1714.3,883.8,1712.9,883.4z"/>
<path class="st0" d="M1845.8,891.1c-12.9-2.6-26.1-3.5-38.2-15.8c-0.2,7.2,3.2,9,3.5,14.3c-13.5-4.2-24.1-18.8-34.2-35
	c-2.9-4.6-4.5-5-7.3,0.4c-7.2,13.8-14.7,26.9-22.2,40.1c-1.6,2.8-3.2,6.9-6.5,5.1l4.4-15.2c-9.8,11.2-18,27-30,32
	c2.5-15.3,7.9-27.9,9.2-44.8l-21.3,11.2l-1.1-2.8c8.2-9.5,16.2-19.5,22.1-39.2c-29.5,24-56.3,14.8-83-12.6c8-3.6,15.6-2.3,23-4.2
	c7.7-2,15.5-2.8,22.8-8.6c7.7-6.1,14.6-13,20.6-20.7c0.4-6.2-1.6-3-2.9-2.8c-18.8,9.9-36.6,3.3-55.2-12.3
	c13.8-6.9,27.8-2.5,39.5-18.2c11.3-15.1,20.4-34.1,29.7-54.9c-17,12.8-34.2,17.2-52.4,7.7c21.5-8.9,40.1-27.3,54.1-62.2
	c-8.3,1.2-15.8,5.5-23.3,9c-9,4.2-17.8,9.5-27.1,10.3l0.1-1.5c8.2-9.4,17.3-14.4,26.2-20.2c13-8.5,23.8-23.3,33.3-42.7
	c-9.6,4.3-18.5,13-28.3,15.5c-1.1,0.3-2.7,2.3-2.7-2.4c7.4-6.6,14.2-15.1,20.6-25.6c-8,2.3-15.7,8.6-24,6.6s-16.3-5.6-25.4-14.9
	c22.3-10.2,42.8-21.7,60.6-46.3c-9.2,2.4-18.2,7.9-28,8.8c3.1-6.5,7.4-6.2,11.5-11.6h-25.5c14.5-15,29.8-15.9,43.3-33.2
	c-6.3-2.7-11.6,2.4-16.6-0.4c-0.4-4.1,2.9-3.2,2.7-8.4c-4.6,0.1-9.3,2.9-15.1,0.4c18.1-15.4,35.7-29.9,48.2-62.1
	c-4.6,1.9-7,7.9-10.2,10.5c-1.1,0.8-3.2,6-2.6-2.6c0.3-5-2.1-0.5-3,0c-8,4.2-15.9,9.1-26.1,5.8l9.8-9c-5.1-1.2-8.7-1.8-12.3-2.9
	c-2.6-0.9-5-2.6-6.6-7c-2.2-6-2-9.7,2.4-10.4c8-1.2,15.9-2.4,23.8-4.2c12-2.7,21.5-15.2,27.2-36.4c-5.9,5.5-11,11.7-17.1,8.9
	c0.6-5.6,4.7-2.8,5.2-8c-3.6-0.7-7.4-0.5-10.9-2.4c-3.8-2.1-6.7-7.2-8.1-15.6c16.1-7.4,33.6-8.9,44.2-41.8
	c-8.3,3.3-15.8,5.6-24.1,6.5c2.7-7.5,6.9-8.4,10.4-10.7c4.5-2.7,8.2-6.5,10.6-11.2c0.8-1.5,1.8-3,1.2-5.3c-0.7-3.1-2.3-1.6-3.3-1
	c-4.7,2.5-9.3,5.4-14.3,8.3c-0.1-7.1,3.7-5.9,4.4-11.1c-7.1,1.1-13.8,6.4-21.4,4.5c2.1-5.8,5.5-5.4,8-8.6
	c-3.1-4.6-7.5-4.5-10.6-10.4c13.5-8.4,26.2-18.9,36.2-39.5c-3.3-3.6-5.9,4-8.8,0.1c1.8-3.9,4.7-5.6,6.2-11.8
	c-6.1,3.6-11.6,8.2-18.6,9.6c2.8-8.4,6.4-12.9,10.1-17.2c7.4-8.8,14.4-18.3,20.2-30.9c5.9-12.8,6.4-19.4,2.4-35
	c-5.3-20.9-5.3-24,0.2-47.5c0.3,0.3,0.9,0.7,0.8,1c-0.8,19.3,0.8,36.7,7.5,52.5c2.8,6.6,3.7,16.7,4.8,25.6
	c1.8,15.3,6.4,24.9,13.9,30c4.8,3.2,9.5,7,15.6,11.4c-8.1,3.3-15-0.1-23.4-1.3l15.5,21.2c-3.7,1.2-6.6-4.9-9.8-1.2
	c13.3,18.1,26.4,37.3,44.9,30.5c-5.8,24.5-16.8,20.9-28,21.4l9.2,11.4c-11.1,2.6-18.8-8.4-28.1-14.5c2.8,15.3,8.9,23.5,13.2,34.7
	c-3.6,2.5-5.7-5.5-9.2-2.9c11.4,33,28.8,35.8,47.7,35.6c-7.6,16.1-16.6,8.9-24.7,11.4c0.3,6,4.3,7,4.4,13.4
	c-4.2-1.1-8.1-4.8-13.1-3.4c15.3,30.3,35.8,37.2,55.4,51.7c-6,9.1-12.4,13.3-19.6,12.4c-4.9-0.6-9.9-1.5-14.8-2.3
	c-1,0-2.8-3.2-2.4,2.3l8.7,6.3c0.1,2.1-0.1,3.4-1.4,2.1c-7.3,0.1-14.4-3-22.3-8.6c9.8,24.2,19.2,45.9,32.9,58.5
	c-1.3,3.8-2.7,1.7-3.8,2.3c-1.2-0.2-3.4-4.4-2.8,2.6c8.1,16.2,17.5,27.2,30.8,27.6c-4.7,6.2-8.8,4.4-12.5,5.5
	c-1.1,1-1.2,2.7-0.2,3.8c0.1,0.1,0.1,0.1,0.2,0.2l7.4,3.5c0.6,4.7-1.8,2.3-2.5,4c-8.6,2.8-16.2-5.2-24.1-9.5
	c15.9,32.8,34.9,45.7,59.1,31.7c-16.6,39.4-36.1,28.2-55.5,21.2c6.9,15.1,16.5,20.4,25.7,27.4c-1,6.4-3.3,2.8-5.1,2.5
	c-5.6,0.2-10.8-3.5-16.1-6.8c-2.1-1.3-4.1-2.3-2,4.1c0.4,1.2,0.2,2.6-0.3,3.7c-0.6,2.3-0.1,4.5,0.2,6.6c9.7,23.1,23.5,27,37.6,31
	c-8.4,6.4-17,4.5-26.1,4c1.9,6.4,6.2,4.5,8.2,11c-8.6,2.3-15.9-4.8-23.9-6.7c7.4,11.5,14.9,22.6,24.1,28.1
	c9.6,5.7,19.2,0.3,30.1-0.7c-8.5,24.3-19.7,31.1-33.3,30.4l17.8,11.9c-8,1.8-14.4,0.4-20.9-1.5c0.1,4.9,2.1,5.7,3.5,7.3
	c9.4,11,18.9,21.6,28.2,32.9c10.4,12.5,21.4,13.8,33,8.6c2.2-1,4.5-2,7.7-3.5c-9.8,23.7-22,35.8-36.2,41.1
	c-14.9,5.6-26.5-9.4-39.1-25.2c3,11.2,6.8,17.4,10.6,23.5s7.6,11.9,12.8,20c-12.8-2.5-22.4-11.4-32-21.5
	c10.6,21.1,18.4,47.6,35,58.5c-15.4,6.6-28.7,2.3-41.8-6.7c-0.9-0.6-1.8-1.5-2.7,0c0.6,0.8,1,1.7,1.2,2.6l3.8,5.2
	C1848.7,893.1,1847.1,891.5,1845.8,891.1z"/>
<path class="st0" d="M1971.8,882.1c-12.9-2.6-26.1-3.5-38.2-15.8c-0.2,7.2,3.2,9,3.5,14.3c-13.5-4.2-24.1-18.8-34.2-35
	c-2.9-4.6-4.5-5-7.3,0.4c-7.2,13.8-14.7,26.9-22.2,40.1c-1.6,2.8-3.2,6.9-6.5,5.1l4.4-15.2c-9.8,11.2-18,27-30,32
	c2.5-15.3,7.9-27.9,9.2-44.8l-21.3,11.2l-1.1-2.8c8.2-9.5,16.2-19.5,22.1-39.2c-29.5,24-56.3,14.8-83-12.6c8-3.6,15.6-2.3,23-4.2
	c7.7-2,15.5-2.8,22.8-8.6c7.7-6.1,14.6-13,20.6-20.7c0.4-6.2-1.6-3-2.9-2.8c-18.8,9.9-36.6,3.3-55.2-12.3
	c13.8-6.9,27.8-2.5,39.5-18.2c11.3-15.1,20.4-34.1,29.7-54.9c-17,12.8-34.2,17.2-52.4,7.7c21.5-8.9,40.1-27.3,54.1-62.2
	c-8.3,1.2-15.8,5.5-23.3,9c-9,4.2-17.8,9.5-27.1,10.3l0.1-1.5c8.2-9.4,17.3-14.4,26.2-20.2c13-8.5,23.8-23.3,33.3-42.7
	c-9.6,4.3-18.5,13-28.3,15.5c-1.1,0.3-2.7,2.3-2.7-2.4c7.4-6.6,14.2-15.1,20.6-25.6c-8,2.3-15.7,8.6-24,6.6s-16.3-5.6-25.4-14.9
	c22.3-10.2,42.8-21.7,60.6-46.3c-9.2,2.4-18.2,7.9-28,8.8c3.1-6.5,7.4-6.2,11.5-11.6h-25.5c14.5-15,29.8-15.9,43.3-33.2
	c-6.3-2.7-11.6,2.4-16.6-0.4c-0.4-4.1,2.9-3.2,2.7-8.4c-4.6,0.1-9.3,2.9-15.1,0.4c18.1-15.4,35.7-29.9,48.2-62.1
	c-4.6,1.9-7,7.9-10.2,10.5c-1.1,0.8-3.2,6-2.6-2.6c0.3-5-2.1-0.5-3,0c-8,4.2-15.9,9.1-26.1,5.8l9.8-9c-5.1-1.2-8.7-1.8-12.3-2.9
	c-2.6-0.9-5-2.6-6.6-7c-2.2-6-2-9.7,2.4-10.4c8-1.2,15.9-2.4,23.8-4.2c12-2.7,21.5-15.2,27.2-36.4c-5.9,5.5-11,11.7-17.1,8.9
	c0.6-5.6,4.7-2.8,5.2-8c-3.6-0.7-7.4-0.5-10.9-2.4c-3.8-2.1-6.7-7.2-8.1-15.6c16.1-7.4,33.6-8.9,44.2-41.8
	c-8.3,3.3-15.8,5.6-24.1,6.5c2.7-7.5,6.9-8.4,10.4-10.7c4.5-2.7,8.2-6.5,10.6-11.2c0.8-1.5,1.8-3,1.2-5.3c-0.7-3.1-2.3-1.6-3.3-1
	c-4.7,2.5-9.3,5.4-14.3,8.3c-0.1-7.1,3.7-5.9,4.4-11.1c-7.1,1.1-13.8,6.4-21.4,4.5c2.1-5.8,5.5-5.4,8-8.6
	c-3.1-4.6-7.5-4.5-10.6-10.4c13.5-8.4,26.2-18.9,36.2-39.5c-3.3-3.6-5.9,4-8.8,0.1c1.8-3.9,4.7-5.6,6.2-11.8
	c-6.1,3.6-11.6,8.2-18.6,9.6c2.8-8.4,6.4-12.9,10.1-17.2c7.4-8.8,14.4-18.3,20.2-30.9c5.9-12.8,6.4-19.4,2.4-35
	c-5.3-20.8-5.3-24,0.2-47.5c0.3,0.3,0.9,0.7,0.8,1c-0.8,19.3,0.8,36.7,7.5,52.5c2.8,6.6,3.7,16.7,4.8,25.6
	c1.8,15.3,6.4,24.9,13.9,30c4.8,3.2,9.5,7,15.6,11.4c-8.1,3.3-15-0.1-23.4-1.3l15.5,21.2c-3.7,1.2-6.6-4.9-9.8-1.2
	c13.3,18.1,26.4,37.3,44.9,30.5c-5.8,24.5-16.8,20.9-28,21.4l9.2,11.4c-11.1,2.6-18.8-8.4-28.1-14.5c2.8,15.3,8.9,23.5,13.2,34.7
	c-3.6,2.5-5.7-5.5-9.2-2.9c11.4,33,28.8,35.8,47.7,35.6c-7.6,16.1-16.6,8.9-24.7,11.4c0.3,6,4.3,7,4.4,13.4
	c-4.2-1.1-8.1-4.8-13.1-3.4c15.3,30.3,35.8,37.2,55.4,51.7c-6,9.1-12.4,13.3-19.6,12.4c-4.9-0.6-9.9-1.5-14.8-2.3
	c-1,0-2.8-3.2-2.4,2.3l8.7,6.3c0.1,2.1-0.1,3.4-1.4,2.1c-7.3,0.1-14.4-3-22.3-8.6c9.8,24.2,19.2,45.9,32.9,58.5
	c-1.3,3.8-2.7,1.7-3.8,2.3c-1.2-0.2-3.4-4.4-2.8,2.6c8.1,16.2,17.5,27.2,30.8,27.6c-4.7,6.2-8.8,4.4-12.5,5.5
	c-1.1,1-1.2,2.7-0.2,3.8c0.1,0.1,0.1,0.1,0.2,0.2l7.4,3.5c0.6,4.7-1.8,2.3-2.5,4c-8.6,2.8-16.2-5.2-24.1-9.5
	c15.9,32.8,34.9,45.7,59.1,31.7c-16.6,39.4-36.1,28.2-55.5,21.2c6.9,15.1,16.5,20.4,25.7,27.4c-1,6.4-3.3,2.8-5.1,2.5
	c-5.6,0.2-10.8-3.5-16.1-6.8c-2.1-1.3-4.1-2.3-2,4.1c0.4,1.2,0.2,2.6-0.3,3.7c-0.6,2.3-0.1,4.5,0.2,6.6c9.7,23.1,23.5,27,37.6,31
	c-8.4,6.4-17,4.5-26.1,4c1.9,6.4,6.2,4.5,8.2,11c-8.6,2.3-15.9-4.8-23.9-6.7c7.4,11.5,14.9,22.6,24.1,28.1
	c9.6,5.7,19.2,0.3,30.1-0.7c-8.5,24.3-19.7,31.1-33.3,30.4l17.8,11.9c-8,1.8-14.4,0.4-20.9-1.5c0.1,4.9,2.1,5.7,3.5,7.3
	c9.4,11,18.9,21.6,28.2,32.9c10.4,12.5,21.4,13.8,33,8.6c2.2-1,4.5-2,7.7-3.5c-9.8,23.7-22,35.8-36.2,41.1
	c-14.9,5.6-26.5-9.4-39.1-25.2c3,11.2,6.8,17.4,10.6,23.5s7.6,11.9,12.8,20c-12.8-2.5-22.4-11.4-32-21.5
	c10.6,21.1,18.4,47.6,35,58.5c-15.4,6.6-28.7,2.3-41.8-6.7c-0.9-0.6-1.8-1.5-2.7,0c0.6,0.8,1,1.7,1.2,2.6l3.8,5.2
	C1974.7,884.1,1973.1,882.5,1971.8,882.1z"/>
<path class="st0" d="M52,756.7c0,0,1009,76,1109,98s296,22,296,22l525-86v189H39L52,756.7z"/>
<rect x="872.6" y="221.3" transform="matrix(0.1838 -0.983 0.983 0.1838 3.498 1530.8848)" class="st0" width="102" height="1084"/>
<polygon class="st0" points="737,693.7 1039,664.7 1116,664.7 974,678.7 814,718.7 737,703.7 "/>
<polygon class="st0" points="555,662.7 789.3,633.7 849,633.7 738.8,647.7 614.7,687.7 555,672.7 "/>
<polygon class="st0" points="580.9,694.4 714.7,888.9 754.4,933.6 691.7,841.9 639.3,722.5 588.4,687.8 "/>
<polygon class="st0" points="800.9,736.4 934.7,930.9 974.4,975.6 911.7,883.9 859.3,764.5 808.4,729.8 "/>
<polygon class="st0" points="935,738.7 1169.3,709.7 1229,709.7 1118.8,723.7 994.7,763.7 935,748.7 "/>
</svg>
